<?xml version="1.0" encoding="UTF-8"?>
<svg width="439px" height="68px" viewBox="0 0 439 68" version="1.1" xmlns="http://www.w3.org/2000/svg" xmlns:xlink="http://www.w3.org/1999/xlink">
    <!-- Generator: Sketch 51.1 (57501) - http://www.bohemiancoding.com/sketch -->
    <title>logo-anlage-app</title>
    <desc>Created with Sketch.</desc>
    <defs>
        <path d="M1.86729174,5.26330806 C2.08411647,5.60312161 2.37876913,5.88845743 2.72613065,6.09419646 C2.07650486,7.11542184 1.59183702,8.25184819 1.30964025,9.46596236 C1.10207847,9.41177665 0.884276438,9.38293217 0.659737418,9.38293217 C0.472326494,9.38293217 0.289608804,9.40302628 0.113621298,9.44117757 C0.433385636,7.92435817 1.03738316,6.5122943 1.86729174,5.26330806 Z M5.449166,1.74623389 C6.72788375,0.929927626 8.17031871,0.347425441 9.71621933,0.0589789055 C9.68988959,0.206385071 9.6761488,0.35815242 9.6761488,0.513129103 C9.6761488,0.766085106 9.71275622,1.01049099 9.78096228,1.24133798 C8.5159326,1.49604217 7.33002528,1.9693208 6.26433048,2.62008372 C6.06479858,2.26869648 5.78470521,1.96904134 5.449166,1.74623389 Z M0.113621298,14.4559778 C0.289608804,14.4941291 0.472326494,14.5142232 0.659737418,14.5142232 C0.884276438,14.5142232 1.10207847,14.4853787 1.30964025,14.431193 C1.59183702,15.6453072 2.07650486,16.7817335 2.72613065,17.8029589 C2.37876913,18.0086979 2.08411647,18.2940338 1.86729174,18.6338473 C1.03738316,17.3848611 0.433385636,15.9727972 0.113621298,14.4559778 Z M5.449166,22.1509215 C5.78470521,21.928114 6.06479858,21.6284589 6.26433048,21.2770716 C7.29120071,21.9041265 8.42968404,22.3663934 9.64301958,22.6271115 C9.56925333,22.866368 9.52954048,23.1205594 9.52954048,23.3840263 C9.52954048,23.528752 9.54152362,23.6706789 9.56455184,23.808869 C8.0759415,23.5112951 6.68597312,22.9404729 5.449166,22.1509215 Z M14.6357495,23.7441966 C14.6522824,23.6265134 14.6608315,23.5062682 14.6608315,23.3840263 C14.6608315,23.0975347 14.6138743,22.8220107 14.5272364,22.5647307 C15.7697571,22.263989 16.9293108,21.7507857 17.9652761,21.0657422 C18.1294146,21.4296775 18.3759617,21.7484517 18.681135,21.9982824 C17.4698601,22.8113532 16.1034887,23.4112342 14.6357495,23.7441966 Z M22.2325017,18.3183963 C21.9724435,18.0227001 21.6454096,17.7873424 21.2751111,17.6360342 C21.8975026,16.6175893 22.3577633,15.4892679 22.6200057,14.2869579 C22.9423872,14.4329445 23.3003232,14.5142232 23.6772429,14.5142232 C23.7087885,14.5142232 23.7402012,14.5136539 23.7714712,14.5125249 C23.4759323,15.8817761 22.9485675,17.1647748 22.2325017,18.3183963 Z M23.7714712,9.38463042 C23.7402012,9.38350149 23.7087885,9.38293217 23.6772429,9.38293217 C23.3003232,9.38293217 22.9423872,9.46421086 22.6200057,9.61019747 C22.3577633,8.40788741 21.8975026,7.27956605 21.2751111,6.2611212 C21.6454096,6.10981295 21.9724435,5.87445525 22.2325017,5.5787591 C22.9485675,6.73238055 23.4759323,8.01537931 23.7714712,9.38463042 Z M18.681135,1.89887299 C18.3759617,2.14870366 18.1294146,2.46747787 17.9652761,2.83141316 C16.9669305,2.17124615 15.8538094,1.6706656 14.6622677,1.36602635 C14.7562917,1.09918836 14.8074398,0.812131871 14.8074398,0.513129103 C14.8074398,0.403103746 14.8005141,0.294695978 14.7870748,0.188317965 C16.1974461,0.527505339 17.5115879,1.11381202 18.681135,1.89887299 Z" id="path-1"></path>
        <path d="M27.4993806,14.9605045 C26.4728094,15.4319323 26.0229759,15.9088995 26.0229759,16.3553509 C26.0229759,17.4432944 26.9086634,18.3260394 28.0021882,18.3260394 C29.095713,18.3260394 29.9814004,17.4432944 29.9814004,16.3553509 C29.9814004,15.9088996 29.5315671,15.4319325 28.5049963,14.9605047 C28.3149912,14.8732495 28.1457371,14.7547657 28.0021879,14.6127797 C27.858639,14.7547654 27.6893852,14.8732491 27.4993806,14.9605045 Z M28.5049958,4.5384014 C29.531567,4.06697358 29.9814004,3.59000637 29.9814004,3.14355504 C29.9814004,2.05561149 29.095713,1.17286652 28.0021882,1.17286652 C26.9086634,1.17286652 26.0229759,2.05561149 26.0229759,3.14355504 C26.0229759,3.5900063 26.4728093,4.06697343 27.4993801,4.53840119 C27.6893851,4.6256564 27.8586393,4.74414023 28.0021885,4.8861262 C28.1457374,4.74414051 28.3149912,4.62565677 28.5049958,4.5384014 Z M27.0099138,5.60425232 C25.6123456,4.96245301 24.8501094,4.15423899 24.8501094,3.14355504 C24.8501094,1.40697986 26.2617792,0 28.0021882,0 C29.7425972,0 31.154267,1.40697986 31.154267,3.14355504 C31.154267,4.15423912 30.3920306,4.96245321 28.9944629,5.60425219 C28.7862265,5.69988004 28.6527626,5.90803449 28.6527626,6.13717817 L28.6527623,13.3617277 C28.6527623,13.5908717 28.7862263,13.7990261 28.9944626,13.8946536 C30.3920308,14.5364529 31.154267,15.3446669 31.154267,16.3553509 C31.154267,18.091926 29.7425972,19.4989059 28.0021882,19.4989059 C26.2617792,19.4989059 24.8501094,18.091926 24.8501094,16.3553509 C24.8501094,15.3446668 25.6123458,14.5364527 27.0099135,13.8946537 C27.2181498,13.7990259 27.3516138,13.5908714 27.3516138,13.3617277 L27.3516141,6.13717818 C27.3516141,5.9080342 27.2181501,5.69987978 27.0099138,5.60425232 Z M36.8685125,18.4247865 C35.8092672,18.0322409 35.1539202,18.0514274 34.8382314,18.3671161 C34.0689392,19.1364084 34.0710198,20.386879 34.8442586,21.1601178 C35.6174974,21.9333566 36.867968,21.9354372 37.6372602,21.1661449 C37.952949,20.8504562 37.9721354,20.1951093 37.57959,19.1358644 C37.5069349,18.9398118 37.4710349,18.7363503 37.4699295,18.5344465 C37.2680261,18.5333411 37.0645649,18.4974412 36.8685125,18.4247865 Z M44.9491296,11.7663241 C46.0083748,12.1588697 46.6637219,12.1396833 46.9794107,11.8239945 C47.7487029,11.0547023 47.7466223,9.8042317 46.9733835,9.0309929 C46.2001447,8.2577541 44.9496741,8.25567345 44.1803818,9.02496571 C43.8646931,9.34065443 43.8455066,9.99600131 44.2380521,11.0552463 C44.3107072,11.2512989 44.3466072,11.4547604 44.3477126,11.6566642 C44.549616,11.6577696 44.7530772,11.6936694 44.9491296,11.7663241 Z M43.1382766,11.4628119 C42.6038673,10.0207613 42.6363785,8.91028531 43.35104,8.19562384 C44.5789841,6.96767976 46.5720703,6.97099604 47.8027253,8.20165103 C49.0333803,9.43230602 49.0366966,11.4253923 47.8087525,12.6533364 C47.094091,13.367998 45.9836148,13.4005091 44.5415648,12.8660999 C44.3267003,12.7864737 44.0851397,12.8392878 43.9231106,13.0013169 L38.8145824,18.1098447 C38.6525531,18.2718739 38.599739,18.5134346 38.6793655,18.7282987 C39.2137748,20.1703493 39.1812636,21.2808253 38.4666021,21.9954868 C37.238658,23.2234309 35.2455717,23.2201146 34.0149167,21.9894596 C32.7842618,20.7588046 32.7809455,18.7657183 34.0088895,17.5377743 C34.7235511,16.8231127 35.8340273,16.7906015 37.2760773,17.3250108 C37.4909417,17.404637 37.7325024,17.3518228 37.8945315,17.1897938 L43.0030597,12.081266 C43.1650889,11.9192367 43.217903,11.677676 43.1382766,11.4628119 Z M41.0438719,27.4993806 C40.572444,26.4728094 40.0954768,26.0229759 39.6490255,26.0229759 C38.5610819,26.0229759 37.678337,26.9086634 37.678337,28.0021882 C37.678337,29.095713 38.5610819,29.9814004 39.6490255,29.9814004 C40.0954768,29.9814004 40.5724439,29.5315671 41.0438717,28.5049963 C41.1311269,28.3149912 41.2496107,28.1457371 41.3915967,28.0021879 C41.249611,27.858639 41.1311272,27.6893852 41.0438719,27.4993806 Z M51.465975,28.5049958 C51.9374028,29.531567 52.41437,29.9814004 52.8608213,29.9814004 C53.9487649,29.9814004 54.8315098,29.095713 54.8315098,28.0021882 C54.8315098,26.9086634 53.9487649,26.0229759 52.8608213,26.0229759 C52.4143701,26.0229759 51.9374029,26.4728093 51.4659752,27.4993801 C51.37872,27.6893851 51.2602361,27.8586393 51.1182502,28.0021885 C51.2602359,28.1457374 51.3787196,28.3149912 51.465975,28.5049958 Z M52.8608213,24.8501094 C54.5973965,24.8501094 56.0043764,26.2617792 56.0043764,28.0021882 C56.0043764,29.7425972 54.5973965,31.154267 52.8608213,31.154267 C51.8501372,31.154267 51.0419232,30.3920306 50.4001242,28.9944629 C50.3044963,28.7862265 50.0963419,28.6527626 49.8671982,28.6527626 L42.6426486,28.6527623 C42.4135047,28.6527623 42.2053502,28.7862263 42.1097228,28.9944626 C41.4679235,30.3920308 40.6597094,31.154267 39.6490255,31.154267 C37.9124503,31.154267 36.5054705,29.7425972 36.5054705,28.0021882 C36.5054705,26.2617792 37.9124503,24.8501094 39.6490255,24.8501094 C40.6597096,24.8501094 41.4679237,25.6123458 42.1097226,27.0099135 C42.2053505,27.2181498 42.4135049,27.3516138 42.6426486,27.3516138 L49.8671982,27.3516141 C50.0963422,27.3516141 50.3044966,27.2181501 50.400124,27.0099138 C51.0419234,25.6123456 51.8501374,24.8501094 52.8608213,24.8501094 Z M37.5795898,36.8685125 C37.9721354,35.8092672 37.952949,35.1539202 37.6372602,34.8382314 C36.867968,34.0689392 35.6174974,34.0710198 34.8442586,34.8442586 C34.0710198,35.6174974 34.0689392,36.867968 34.8382314,37.6372602 C35.1539201,37.952949 35.809267,37.9721354 36.868512,37.57959 C37.0645646,37.5069349 37.2680261,37.4710349 37.4699299,37.4699295 C37.4710353,37.2680261 37.5069351,37.0645649 37.5795898,36.8685125 Z M44.2380522,44.9491296 C43.8455066,46.0083748 43.8646931,46.6637219 44.1803818,46.9794107 C44.9496741,47.7487029 46.2001447,47.7466223 46.9733835,46.9733835 C47.7466223,46.2001447 47.7487029,44.9496741 46.9794107,44.1803818 C46.6637219,43.8646931 46.0083751,43.8455066 44.9491301,44.2380521 C44.7530775,44.3107072 44.549616,44.3466072 44.3477122,44.3477126 C44.3466068,44.549616 44.310707,44.7530772 44.2380522,44.9491296 Z M47.8087525,43.35104 C49.0366966,44.5789841 49.0333803,46.5720703 47.8027253,47.8027253 C46.5720703,49.0333803 44.5789841,49.0366966 43.35104,47.8087525 C42.6363784,47.094091 42.6038673,45.9836148 43.1382765,44.5415648 C43.2179027,44.3267003 43.1650885,44.0851397 43.0030595,43.9231106 L37.8945317,38.8145824 C37.7325024,38.6525531 37.4909417,38.599739 37.2760776,38.6793655 C35.834027,39.2137748 34.723551,39.1812636 34.0088895,38.4666021 C32.7809455,37.238658 32.7842618,35.2455717 34.0149167,34.0149167 C35.2455717,32.7842618 37.238658,32.7809455 38.4666021,34.0088895 C39.1812637,34.7235511 39.2137748,35.8340273 38.6793656,37.2760773 C38.5997394,37.4909417 38.6525536,37.7325024 38.8145826,37.8945315 L43.9231104,43.0030597 C44.0851396,43.1650889 44.3267003,43.217903 44.5415645,43.1382766 C45.9836151,42.6038673 47.0940911,42.6363785 47.8087525,43.35104 Z M28.5049958,41.0438719 C29.531567,40.572444 29.9814004,40.0954768 29.9814004,39.6490255 C29.9814004,38.5610819 29.095713,37.678337 28.0021882,37.678337 C26.9086634,37.678337 26.0229759,38.5610819 26.0229759,39.6490255 C26.0229759,40.0954768 26.4728093,40.5724439 27.4993801,41.0438717 C27.6893851,41.1311269 27.8586393,41.2496107 28.0021885,41.3915967 C28.1457374,41.249611 28.3149912,41.1311272 28.5049958,41.0438719 Z M27.4993806,51.465975 C26.4728094,51.9374028 26.0229759,52.41437 26.0229759,52.8608213 C26.0229759,53.9487649 26.9086634,54.8315098 28.0021882,54.8315098 C29.095713,54.8315098 29.9814004,53.9487649 29.9814004,52.8608213 C29.9814004,52.4143701 29.5315671,51.9374029 28.5049963,51.4659752 C28.3149912,51.37872 28.1457371,51.2602361 28.0021879,51.1182502 C27.858639,51.2602359 27.6893852,51.3787196 27.4993806,51.465975 Z M28.9944626,50.400124 C30.3920308,51.0419234 31.154267,51.8501374 31.154267,52.8608213 C31.154267,54.5973965 29.7425972,56.0043764 28.0021882,56.0043764 C26.2617792,56.0043764 24.8501094,54.5973965 24.8501094,52.8608213 C24.8501094,51.8501372 25.6123458,51.0419232 27.0099135,50.4001242 C27.2181498,50.3044963 27.3516138,50.0963419 27.3516138,49.8671982 L27.3516141,42.6426486 C27.3516141,42.4135047 27.2181501,42.2053502 27.0099138,42.1097228 C25.6123456,41.4679235 24.8501094,40.6597094 24.8501094,39.6490255 C24.8501094,37.9124503 26.2617792,36.5054705 28.0021882,36.5054705 C29.7425972,36.5054705 31.154267,37.9124503 31.154267,39.6490255 C31.154267,40.6597096 30.3920306,41.4679237 28.9944629,42.1097226 C28.7862265,42.2053505 28.6527626,42.4135049 28.6527626,42.6426486 L28.6527623,49.8671982 C28.6527623,50.0963422 28.7862263,50.3044966 28.9944626,50.400124 Z M19.1358639,37.5795898 C20.1951091,37.9721354 20.8504562,37.952949 21.1661449,37.6372602 C21.9354372,36.867968 21.9333566,35.6174974 21.1601178,34.8442586 C20.386879,34.0710198 19.1364084,34.0689392 18.3671161,34.8382314 C18.0514274,35.1539201 18.0322409,35.809267 18.4247864,36.868512 C18.4974415,37.0645646 18.5333415,37.2680261 18.5344469,37.4699299 C18.7363503,37.4710353 18.9398115,37.5069351 19.1358639,37.5795898 Z M11.0552468,44.2380522 C9.99600152,43.8455066 9.34065448,43.8646931 9.02496571,44.1803818 C8.25567345,44.9496741 8.2577541,46.2001447 9.0309929,46.9733835 C9.8042317,47.7466223 11.0547023,47.7487029 11.8239945,46.9794107 C12.1396832,46.6637219 12.1588697,46.0083751 11.7663243,44.9491301 C11.6936692,44.7530775 11.6577692,44.549616 11.6566638,44.3477122 C11.4547603,44.3466068 11.2512992,44.310707 11.0552468,44.2380522 Z M12.6533364,47.8087525 C11.4253923,49.0366966 9.43230602,49.0333803 8.20165103,47.8027253 C6.97099604,46.5720703 6.96767976,44.5789841 8.19562384,43.35104 C8.91028541,42.6363784 10.0207616,42.6038673 11.4628116,43.1382765 C11.677676,43.2179027 11.9192367,43.1650885 12.0812658,43.0030595 L17.189794,37.8945317 C17.3518232,37.7325024 17.4046373,37.4909417 17.3250109,37.2760776 C16.7906016,35.834027 16.8231128,34.723551 17.5377743,34.0088895 C18.7657183,32.7809455 20.7588046,32.7842618 21.9894596,34.0149167 C23.2201146,35.2455717 23.2234309,37.238658 21.9954868,38.4666021 C21.2808252,39.1812637 20.1703491,39.2137748 18.728299,38.6793656 C18.5134346,38.5997394 18.2718739,38.6525536 18.1098449,38.8145826 L13.0013167,43.9231104 C12.8392874,44.0851396 12.7864733,44.3267003 12.8660998,44.5415645 C13.4005091,45.9836151 13.3679979,47.0940911 12.6533364,47.8087525 Z M14.9605045,28.5049958 C15.4319323,29.531567 15.9088995,29.9814004 16.3553509,29.9814004 C17.4432944,29.9814004 18.3260394,29.095713 18.3260394,28.0021882 C18.3260394,26.9086634 17.4432944,26.0229759 16.3553509,26.0229759 C15.9088996,26.0229759 15.4319325,26.4728093 14.9605047,27.4993801 C14.8732495,27.6893851 14.7547657,27.8586393 14.6127797,28.0021885 C14.7547654,28.1457374 14.8732491,28.3149912 14.9605045,28.5049958 Z M4.5384014,27.4993806 C4.06697358,26.4728094 3.59000637,26.0229759 3.14355504,26.0229759 C2.05561149,26.0229759 1.17286652,26.9086634 1.17286652,28.0021882 C1.17286652,29.095713 2.05561149,29.9814004 3.14355504,29.9814004 C3.5900063,29.9814004 4.06697343,29.5315671 4.53840119,28.5049963 C4.6256564,28.3149912 4.74414023,28.1457371 4.8861262,28.0021879 C4.74414051,27.858639 4.62565677,27.6893852 4.5384014,27.4993806 Z M5.60425232,28.9944626 C4.96245301,30.3920308 4.15423899,31.154267 3.14355504,31.154267 C1.40697986,31.154267 0,29.7425972 0,28.0021882 C0,26.2617792 1.40697986,24.8501094 3.14355504,24.8501094 C4.15423912,24.8501094 4.96245321,25.6123458 5.60425219,27.0099135 C5.69988004,27.2181498 5.90803449,27.3516138 6.13717817,27.3516138 L13.3617277,27.3516141 C13.5908717,27.3516141 13.7990261,27.2181501 13.8946536,27.0099138 C14.5364529,25.6123456 15.3446669,24.8501094 16.3553509,24.8501094 C18.091926,24.8501094 19.4989059,26.2617792 19.4989059,28.0021882 C19.4989059,29.7425972 18.091926,31.154267 16.3553509,31.154267 C15.3446668,31.154267 14.5364527,30.3920306 13.8946537,28.9944629 C13.7990259,28.7862265 13.5908714,28.6527626 13.3617277,28.6527626 L6.13717818,28.6527623 C5.9080342,28.6527623 5.69987978,28.7862263 5.60425232,28.9944626 Z M18.4247865,19.1358639 C18.0322409,20.1951091 18.0514274,20.8504562 18.3671161,21.1661449 C19.1364084,21.9354372 20.386879,21.9333566 21.1601178,21.1601178 C21.9333566,20.386879 21.9354372,19.1364084 21.1661449,18.3671161 C20.8504562,18.0514274 20.1951093,18.0322409 19.1358644,18.4247864 C18.9398118,18.4974415 18.7363503,18.5333415 18.5344465,18.5344469 C18.5333411,18.7363503 18.4974412,18.9398115 18.4247865,19.1358639 Z M11.7663241,11.0552468 C12.1588697,9.99600152 12.1396833,9.34065448 11.8239945,9.02496571 C11.0547023,8.25567345 9.8042317,8.2577541 9.0309929,9.0309929 C8.2577541,9.8042317 8.25567345,11.0547023 9.02496571,11.8239945 C9.34065443,12.1396832 9.99600131,12.1588697 11.0552463,11.7663243 C11.2512989,11.6936692 11.4547604,11.6577692 11.6566642,11.6566638 C11.6577696,11.4547603 11.6936694,11.2512992 11.7663241,11.0552468 Z M8.19562384,12.6533364 C6.96767976,11.4253923 6.97099604,9.43230602 8.20165103,8.20165103 C9.43230602,6.97099604 11.4253923,6.96767976 12.6533364,8.19562384 C13.367998,8.91028541 13.4005091,10.0207616 12.8660999,11.4628116 C12.7864737,11.677676 12.8392878,11.9192367 13.0013169,12.0812658 L18.1098447,17.189794 C18.2718739,17.3518232 18.5134346,17.4046373 18.7282987,17.3250109 C20.1703493,16.7906016 21.2808253,16.8231128 21.9954868,17.5377743 C23.2234309,18.7657183 23.2201146,20.7588046 21.9894596,21.9894596 C20.7588046,23.2201146 18.7657183,23.2234309 17.5377743,21.9954868 C16.8231127,21.2808252 16.7906015,20.1703491 17.3250108,18.728299 C17.404637,18.5134346 17.3518228,18.2718739 17.1897938,18.1098449 L12.081266,13.0013167 C11.9192367,12.8392874 11.677676,12.7864733 11.4628119,12.8660998 C10.0207613,13.4005091 8.91028531,13.3679979 8.19562384,12.6533364 Z" id="path-3"></path>
        <path d="M41.194139,14.2472038 C40.0638101,14.2800134 39.4626833,14.5435561 39.2880245,14.9550265 C38.8625551,15.9573695 39.3333344,17.11703 40.340818,17.5446814 C41.3483016,17.9723328 42.5095223,17.5054152 42.9349917,16.5030722 C43.1096505,16.0916018 42.8816495,15.4761152 42.1200582,14.6402331 C41.9792052,14.4856404 41.8696712,14.3103973 41.7929987,14.1235588 C41.6053369,14.1981943 41.4031885,14.2411361 41.194139,14.2472038 Z M46.1946543,5.04108666 C47.3249832,5.00827709 47.92611,4.74473438 48.1007688,4.33326401 C48.5262381,3.33092098 48.0554588,2.17126048 47.0479753,1.74360908 C46.0404917,1.31595768 44.879271,1.78287527 44.4538016,2.78521831 C44.2791428,3.19668869 44.5071438,3.81217529 45.2687351,4.64805739 C45.4095881,4.80265006 45.5191221,4.97789317 45.5957946,5.16473168 C45.7834564,5.09009623 45.9856047,5.04715441 46.1946543,5.04108666 Z M43.3741723,2.32694285 C44.0530822,0.72753125 45.9033072,-0.0164294326 47.5062507,0.663979752 C49.1091943,1.34438894 49.859308,3.19212788 49.1803981,4.79153947 C48.7852573,5.72243275 47.767108,6.16880423 46.2286835,6.21345942 C45.9996246,6.22010795 45.7954223,6.35956884 45.7058841,6.57050777 L42.880704,13.226217 C42.7911658,13.4371556 42.8326968,13.6809239 42.9870317,13.8503137 C44.0235885,14.9879832 44.4097618,16.0304543 44.014621,16.9613477 C43.3357111,18.5607593 41.4854861,19.3047199 39.8825425,18.6243108 C38.279599,17.9439016 37.5294853,16.0961626 38.2083952,14.496751 C38.603536,13.5658578 39.6216853,13.1194863 41.1601097,13.0748311 C41.3891687,13.0681826 41.593371,12.9287217 41.6829092,12.7177827 L44.5080893,6.06207346 C44.5976274,5.85113489 44.5560965,5.60736661 44.4017616,5.43797684 C43.3652048,4.30030726 42.9790315,3.25783617 43.3741723,2.32694285 Z M52.5543606,25.3267952 C51.7318975,24.5507318 51.1204838,24.3120238 50.7060279,24.4794749 C49.6964121,24.8873861 49.2092995,26.0402812 49.6193028,27.0550748 C50.029306,28.0698685 51.1805737,28.560815 52.1901895,28.1529037 C52.6046454,27.9854526 52.8786391,27.3890168 52.9311706,26.2594325 C52.9408861,26.0505209 52.9873494,25.8491531 53.0652486,25.6628227 C52.8797764,25.582901 52.7064715,25.470325 52.5543606,25.3267952 Z M62.5999667,22.3529855 C63.4224298,23.1290489 64.0338435,23.3677569 64.4482994,23.2003058 C65.4579152,22.7923945 65.9450278,21.6394995 65.5350246,20.6247058 C65.1250213,19.6099122 63.9737537,19.1189657 62.9641378,19.526877 C62.5496819,19.6943281 62.2756882,20.2907639 62.2231567,21.4203482 C62.2134412,21.6292597 62.1669779,21.8306276 62.0890787,22.016958 C62.2745509,22.0968797 62.4478558,22.2094557 62.5999667,22.3529855 Z M62.5247743,18.4394141 C64.1357909,17.7885211 65.9701571,18.5707681 66.6224875,20.1853423 C67.2748178,21.7999165 66.4986795,23.6368757 64.8876629,24.2877687 C63.9500153,24.6666029 62.9144427,24.2622949 61.7950363,23.2060406 C61.628366,23.0487727 61.3853594,23.0029936 61.17289,23.0888368 L54.4688888,25.79743 C54.2564197,25.8832731 54.1134163,26.0850101 54.1027709,26.313918 C54.0312734,27.8513282 53.5672007,28.8615323 52.629553,29.2403666 C51.0185364,29.8912595 49.1841702,29.1090126 48.5318399,27.4944384 C47.8795095,25.8798641 48.6556478,24.0429049 50.2666644,23.392012 C51.204312,23.0131777 52.2398847,23.4174857 53.359291,24.4737401 C53.5259613,24.631008 53.7689679,24.6767871 53.9814373,24.5909438 L60.6854385,21.8823507 C60.8979076,21.7965076 61.040911,21.5947706 61.0515564,21.3658627 C61.1230539,19.8284525 61.5871266,18.8182483 62.5247743,18.4394141 Z M52.7527962,41.194139 C52.7199866,40.0638101 52.4564439,39.4626833 52.0449735,39.2880245 C51.0426305,38.8625551 49.88297,39.3333344 49.4553186,40.340818 C49.0276672,41.3483016 49.4945848,42.5095223 50.4969278,42.9349917 C50.9083982,43.1096505 51.5238848,42.8816495 52.3597669,42.1200582 C52.5143596,41.9792052 52.6896027,41.8696712 52.8764412,41.7929987 C52.8018057,41.6053369 52.7588639,41.4031885 52.7527962,41.194139 Z M61.9589133,46.1946543 C61.9917229,47.3249832 62.2552656,47.92611 62.666736,48.1007688 C63.669079,48.5262381 64.8287395,48.0554588 65.2563909,47.0479753 C65.6840423,46.0404917 65.2171247,44.879271 64.2147817,44.4538016 C63.8033113,44.2791428 63.1878247,44.5071438 62.3519426,45.2687351 C62.1973499,45.4095881 62.0221068,45.5191221 61.8352683,45.5957946 C61.9099038,45.7834564 61.9528456,45.9856047 61.9589133,46.1946543 Z M64.6730572,43.3741723 C66.2724688,44.0530822 67.0164294,45.9033072 66.3360202,47.5062507 C65.6556111,49.1091943 63.8078721,49.859308 62.2084605,49.1803981 C61.2775673,48.7852573 60.8311958,47.767108 60.7865406,46.2286835 C60.7798921,45.9996246 60.6404312,45.7954223 60.4294922,45.7058841 L53.773783,42.880704 C53.5628444,42.7911658 53.3190761,42.8326968 53.1496863,42.9870317 C52.0120168,44.0235885 50.9695457,44.4097618 50.0386523,44.014621 C48.4392407,43.3357111 47.6952801,41.4854861 48.3756892,39.8825425 C49.0560984,38.279599 50.9038374,37.5294853 52.503249,38.2083952 C53.4341422,38.603536 53.8805137,39.6216853 53.9251689,41.1601097 C53.9318174,41.3891687 54.0712783,41.593371 54.2822173,41.6829092 L60.9379265,44.5080893 C61.1488651,44.5976274 61.3926334,44.5560965 61.5620232,44.4017616 C62.6996927,43.3652048 63.7421638,42.9790315 64.6730572,43.3741723 Z M41.6732048,52.5543606 C42.4492682,51.7318975 42.6879762,51.1204838 42.5205251,50.7060279 C42.1126139,49.6964121 40.9597188,49.2092995 39.9449252,49.6193028 C38.9301315,50.029306 38.439185,51.1805737 38.8470963,52.1901895 C39.0145474,52.6046454 39.6109832,52.8786391 40.7405675,52.9311706 C40.9494791,52.9408861 41.1508469,52.9873494 41.3371773,53.0652486 C41.417099,52.8797764 41.529675,52.7064715 41.6732048,52.5543606 Z M44.6470145,62.5999667 C43.8709511,63.4224298 43.6322431,64.0338435 43.7996942,64.4482994 C44.2076055,65.4579152 45.3605005,65.9450278 46.3752942,65.5350246 C47.3900878,65.1250213 47.8810343,63.9737537 47.473123,62.9641378 C47.3056719,62.5496819 46.7092361,62.2756882 45.5796518,62.2231567 C45.3707403,62.2134412 45.1693724,62.1669779 44.983042,62.0890787 C44.9031203,62.2745509 44.7905443,62.4478558 44.6470145,62.5999667 Z M45.6341373,61.0515564 C47.1715475,61.1230539 48.1817517,61.5871266 48.5605859,62.5247743 C49.2114789,64.1357909 48.4292319,65.9701571 46.8146577,66.6224875 C45.2000835,67.2748178 43.3631243,66.4986795 42.7122313,64.8876629 C42.3333971,63.9500153 42.7377051,62.9144427 43.7939594,61.7950363 C43.9512273,61.628366 43.9970064,61.3853594 43.9111632,61.17289 L41.20257,54.4688888 C41.1167269,54.2564197 40.9149899,54.1134163 40.686082,54.1027709 C39.1486718,54.0312734 38.1384677,53.5672007 37.7596334,52.629553 C37.1087405,51.0185364 37.8909874,49.1841702 39.5055616,48.5318399 C41.1201359,47.8795095 42.9570951,48.6556478 43.607988,50.2666644 C43.9868223,51.204312 43.5825143,52.2398847 42.5262599,53.359291 C42.368992,53.5259613 42.3232129,53.7689679 42.4090562,53.9814373 L45.1176493,60.6854385 C45.2034924,60.8979076 45.4052294,61.040911 45.6341373,61.0515564 Z M25.805861,52.7527962 C26.9361899,52.7199866 27.5373167,52.4564439 27.7119755,52.0449735 C28.1374449,51.0426305 27.6666656,49.88297 26.659182,49.4553186 C25.6516984,49.0276672 24.4904777,49.4945848 24.0650083,50.4969278 C23.8903495,50.9083982 24.1183505,51.5238848 24.8799418,52.3597669 C25.0207948,52.5143596 25.1303288,52.6896027 25.2070013,52.8764412 C25.3946631,52.8018057 25.5968115,52.7588639 25.805861,52.7527962 Z M20.8053457,61.9589133 C19.6750168,61.9917229 19.07389,62.2552656 18.8992312,62.666736 C18.4737619,63.669079 18.9445412,64.8287395 19.9520247,65.2563909 C20.9595083,65.6840423 22.120729,65.2171247 22.5461984,64.2147817 C22.7208572,63.8033113 22.4928562,63.1878247 21.7312649,62.3519426 C21.5904119,62.1973499 21.4808779,62.0221068 21.4042054,61.8352683 C21.2165436,61.9099038 21.0143953,61.9528456 20.8053457,61.9589133 Z M23.6258277,64.6730572 C22.9469178,66.2724688 21.0966928,67.0164294 19.4937493,66.3360202 C17.8908057,65.6556111 17.140692,63.8078721 17.8196019,62.2084605 C18.2147427,61.2775673 19.232892,60.8311958 20.7713165,60.7865406 C21.0003754,60.7798921 21.2045777,60.6404312 21.2941159,60.4294922 L24.119296,53.773783 C24.2088342,53.5628444 24.1673032,53.3190761 24.0129683,53.1496863 C22.9764115,52.0120168 22.5902382,50.9695457 22.985379,50.0386523 C23.6642889,48.4392407 25.5145139,47.6952801 27.1174575,48.3756892 C28.720401,49.0560984 29.4705147,50.9038374 28.7916048,52.503249 C28.396464,53.4341422 27.3783147,53.8805137 25.8398903,53.9251689 C25.6108313,53.9318174 25.406629,54.0712783 25.3170908,54.2822173 L22.4919107,60.9379265 C22.4023726,61.1488651 22.4439035,61.3926334 22.5982384,61.5620232 C23.6347952,62.6996927 24.0209685,63.7421638 23.6258277,64.6730572 Z M14.4456394,41.6732048 C15.2681025,42.4492682 15.8795162,42.6879762 16.2939721,42.5205251 C17.3035879,42.1126139 17.7907005,40.9597188 17.3806972,39.9449252 C16.970694,38.9301315 15.8194263,38.439185 14.8098105,38.8470963 C14.3953546,39.0145474 14.1213609,39.6109832 14.0688294,40.7405675 C14.0591139,40.9494791 14.0126506,41.1508469 13.9347514,41.3371773 C14.1202236,41.417099 14.2935285,41.529675 14.4456394,41.6732048 Z M4.40003328,44.6470145 C3.57757015,43.8709511 2.96615651,43.6322431 2.5517006,43.7996942 C1.54208476,44.2076055 1.05497218,45.3605005 1.46497544,46.3752942 C1.87497869,47.3900878 3.02624634,47.8810343 4.03586218,47.473123 C4.45031811,47.3056719 4.7243118,46.7092361 4.77684331,45.5796518 C4.78655878,45.3707403 4.8330221,45.1693724 4.91092126,44.983042 C4.72544908,44.9031203 4.55214416,44.7905443 4.40003328,44.6470145 Z M5.94844359,45.6341373 C5.87694606,47.1715475 5.41287341,48.1817517 4.47522571,48.5605859 C2.8642091,49.2114789 1.02984287,48.4292319 0.377512535,46.8146577 C-0.274817797,45.2000835 0.501320454,43.3631243 2.11233706,42.7122313 C3.04998472,42.3333971 4.08555734,42.7377051 5.20496368,43.7939594 C5.371634,43.9512273 5.61464057,43.9970064 5.82711003,43.9111632 L12.5311112,41.20257 C12.7435803,41.1167269 12.8865837,40.9149899 12.8972291,40.686082 C12.9687266,39.1486718 13.4327993,38.1384677 14.370447,37.7596334 C15.9814636,37.1087405 17.8158298,37.8909874 18.4681601,39.5055616 C19.1204905,41.1201359 18.3443522,42.9570951 16.7333356,43.607988 C15.795688,43.9868223 14.7601153,43.5825143 13.640709,42.5262599 C13.4740387,42.368992 13.2310321,42.3232129 13.0185627,42.4090562 L6.31456147,45.1176493 C6.10209237,45.2034924 5.95908899,45.4052294 5.94844359,45.6341373 Z M14.2472038,25.805861 C14.2800134,26.9361899 14.5435561,27.5373167 14.9550265,27.7119755 C15.9573695,28.1374449 17.11703,27.6666656 17.5446814,26.659182 C17.9723328,25.6516984 17.5054152,24.4904777 16.5030722,24.0650083 C16.0916018,23.8903495 15.4761152,24.1183505 14.6402331,24.8799418 C14.4856404,25.0207948 14.3103973,25.1303288 14.1235588,25.2070013 C14.1981943,25.3946631 14.2411361,25.5968115 14.2472038,25.805861 Z M5.04108666,20.8053457 C5.00827709,19.6750168 4.74473438,19.07389 4.33326401,18.8992312 C3.33092098,18.4737619 2.17126048,18.9445412 1.74360908,19.9520247 C1.31595768,20.9595083 1.78287527,22.120729 2.78521831,22.5461984 C3.19668869,22.7208572 3.81217529,22.4928562 4.64805739,21.7312649 C4.80265006,21.5904119 4.97789317,21.4808779 5.16473168,21.4042054 C5.09009623,21.2165436 5.04715441,21.0143953 5.04108666,20.8053457 Z M5.43797684,22.5982384 C4.30030726,23.6347952 3.25783617,24.0209685 2.32694285,23.6258277 C0.72753125,22.9469178 -0.0164294326,21.0966928 0.663979752,19.4937493 C1.34438894,17.8908057 3.19212788,17.140692 4.79153947,17.8196019 C5.72243275,18.2147427 6.16880423,19.232892 6.21345942,20.7713165 C6.22010795,21.0003754 6.35956884,21.2045777 6.57050777,21.2941159 L13.226217,24.119296 C13.4371556,24.2088342 13.6809239,24.1673032 13.8503137,24.0129683 C14.9879832,22.9764115 16.0304543,22.5902382 16.9613477,22.985379 C18.5607593,23.6642889 19.3047199,25.5145139 18.6243108,27.1174575 C17.9439016,28.720401 16.0961626,29.4705147 14.496751,28.7916048 C13.5658578,28.396464 13.1194863,27.3783147 13.0748311,25.8398903 C13.0681826,25.6108313 12.9287217,25.406629 12.7177827,25.3170908 L6.06207346,22.4919107 C5.85113489,22.4023726 5.60736661,22.4439035 5.43797684,22.5982384 Z M25.3267952,14.4456394 C24.5507318,15.2681025 24.3120238,15.8795162 24.4794749,16.2939721 C24.8873861,17.3035879 26.0402812,17.7907005 27.0550748,17.3806972 C28.0698685,16.970694 28.560815,15.8194263 28.1529037,14.8098105 C27.9854526,14.3953546 27.3890168,14.1213609 26.2594325,14.0688294 C26.0505209,14.0591139 25.8491531,14.0126506 25.6628227,13.9347514 C25.582901,14.1202236 25.470325,14.2935285 25.3267952,14.4456394 Z M22.3529855,4.40003328 C23.1290489,3.57757015 23.3677569,2.96615651 23.2003058,2.5517006 C22.7923945,1.54208476 21.6394995,1.05497218 20.6247058,1.46497544 C19.6099122,1.87497869 19.1189657,3.02624634 19.526877,4.03586218 C19.6943281,4.45031811 20.2907639,4.7243118 21.4203482,4.77684331 C21.6292597,4.78655878 21.8306276,4.8330221 22.016958,4.91092126 C22.0968797,4.72544908 22.2094557,4.55214416 22.3529855,4.40003328 Z M18.4394141,4.47522571 C17.7885211,2.8642091 18.5707681,1.02984287 20.1853423,0.377512535 C21.7999165,-0.274817797 23.6368757,0.501320454 24.2877687,2.11233706 C24.6666029,3.04998472 24.2622949,4.08555734 23.2060406,5.20496368 C23.0487727,5.371634 23.0029936,5.61464057 23.0888368,5.82711003 L25.79743,12.5311112 C25.8832731,12.7435803 26.0850101,12.8865837 26.313918,12.8972291 C27.8513282,12.9687266 28.8615323,13.4327993 29.2403666,14.370447 C29.8912595,15.9814636 29.1090126,17.8158298 27.4944384,18.4681601 C25.8798641,19.1204905 24.0429049,18.3443522 23.392012,16.7333356 C23.0131777,15.795688 23.4174857,14.7601153 24.4737401,13.640709 C24.631008,13.4740387 24.6767871,13.2310321 24.5909438,13.0185627 L21.8823507,6.31456147 C21.7965076,6.10209237 21.5947706,5.95908899 21.3658627,5.94844359 C19.8284525,5.87694606 18.8182483,5.41287341 18.4394141,4.47522571 Z" id="path-5"></path>
        <path d="M40.8125,44.8125 L37.868811,44.8125 C36.2119568,44.8125 34.868811,43.4693542 34.868811,41.8125 L34.868811,37.0579672 C34.868811,35.401113 33.5256653,34.0579672 31.868811,34.0579672 L11.943689,34.0579672 C10.2868347,34.0579672 8.94368898,35.401113 8.94368898,37.0579672 L8.94368898,41.8125 C8.94368898,43.4693542 7.60054323,44.8125 5.94368898,44.8125 L3,44.8125 C1.34314575,44.8125 -1.2948216e-15,43.4693542 -4.4408921e-15,41.8125 L4.4408921e-15,22.90625 C4.4408921e-15,19.70839 0.549942199,16.7651808 1.6498431,14.0765342 C2.74974399,11.3878875 4.27736121,9.07609347 6.23274059,7.14108264 C8.18811996,5.2060718 10.499914,3.69882281 13.1681921,2.61929045 C15.8364702,1.53975808 18.7491271,1 21.90625,1 L39.8101029,1 C40.3600533,1 40.8794432,1.10184115 41.368288,1.3055265 C41.8571328,1.50921185 42.2848657,1.79436707 42.6514993,2.1610007 C43.0181329,2.52763433 43.3032881,2.95536715 43.5069735,3.44421199 C43.7106589,3.93305684 43.8125,4.45244669 43.8125,5.00239714 L43.8125,41.8125 C43.8125,43.4693542 42.4693542,44.8125 40.8125,44.8125 Z M11.6014427,25.5991605 L32.2110573,25.5991605 C33.7685003,25.5991605 35.0310573,24.3366035 35.0310573,22.7791606 L35.0310573,12.2788067 C35.0310573,10.7213637 33.7685003,9.45880668 32.2110573,9.45880668 L21.90625,9.45880668 C21.6764929,9.45880668 21.193053,9.49231242 20.4559157,9.5593249 C19.7187784,9.62633738 18.8667754,9.79386607 17.899881,10.061916 C16.9329867,10.3299659 15.9134549,10.7416078 14.8412552,11.2968541 C13.7690556,11.8521004 12.7830296,12.6179458 11.8831477,13.5944134 C10.9832658,14.5708809 10.241353,15.7914471 9.65738715,17.2561484 C9.07342125,18.7208498 8.78144268,20.4966539 8.78144268,22.583614 L8.78144268,22.7791606 C8.78144268,24.3366035 10.0439997,25.5991605 11.6014427,25.5991605 Z M76.6785457,31.8439043 L77.4285586,31.8439043 L77.4285586,5.90595648 C77.4285586,5.23927497 77.4702256,4.60906206 77.5535608,4.01529884 C77.636896,3.42153562 77.819189,2.90590687 78.1004452,2.46839713 C78.3817015,2.03088739 78.7983712,1.68192652 79.3504668,1.42150406 C79.9025624,1.16108159 80.6577763,1.03087231 81.6161309,1.03087231 C82.6786546,1.03087231 83.5172023,1.16108159 84.1317994,1.42150406 C84.7463964,1.68192652 85.2099414,2.03088739 85.5224484,2.46839713 C85.8349553,2.90590687 86.0328734,3.42153562 86.1162086,4.01529884 C86.1995438,4.60906206 86.2412108,5.23927497 86.2412108,5.90595648 L86.2412108,37.5940036 C86.2412108,38.5106907 86.2151689,39.3961138 86.1630844,40.2502995 C86.1109999,41.1044851 85.9443321,41.8701157 85.6630758,42.5472141 C85.3818195,43.2243125 84.9234829,43.7659831 84.2880521,44.1722422 C83.6526212,44.5785012 82.7619898,44.7816277 81.6161309,44.7816277 L77.4910597,44.7816277 C76.5118712,44.7816277 75.694157,44.588918 75.0378924,44.2034927 C74.3816277,43.8180675 73.8347488,43.3493141 73.397239,42.7972184 C72.9597293,42.2451228 72.6107684,41.6669936 72.350346,41.0628135 C72.0899235,40.4586334 71.886797,39.948213 71.7409604,39.531537 L62.3032975,13.9685957 L61.5532845,13.9685957 L61.5532845,39.9065435 C61.5532845,40.573225 61.5116176,41.2034379 61.4282824,41.7972012 C61.3449472,42.3909644 61.1626542,42.9065931 60.8813979,43.3441029 C60.6001417,43.7816126 60.183472,44.1305735 59.6313764,44.3909959 C59.0792807,44.6514184 58.3240669,44.7816277 57.3657122,44.7816277 C56.2823548,44.7816277 55.4281819,44.6514184 54.803168,44.3909959 C54.1781541,44.1305735 53.7094007,43.7816126 53.3968937,43.3441029 C53.0843868,42.9065931 52.8864686,42.3909644 52.8031335,41.7972012 C52.7197983,41.2034379 52.6781313,40.573225 52.6781313,39.9065435 L52.6781313,8.21849641 C52.6781313,7.32264313 52.7041732,6.4424284 52.7562577,5.57782582 C52.8083421,4.71322323 52.9802184,3.9423843 53.2718916,3.26528589 C53.5635647,2.58818748 54.0271097,2.04651688 54.6625406,1.64025783 C55.2979714,1.23399879 56.1990196,1.03087231 57.3657122,1.03087231 L61.4907835,1.03087231 C62.5324733,1.03087231 63.3814378,1.23399879 64.0377024,1.64025783 C64.693967,2.04651688 65.2304293,2.48922843 65.6471052,2.96840577 C66.1054488,3.53091829 66.4700347,4.17675632 66.7408741,4.90593922 L76.6785457,31.8439043 Z M96.1163813,8.21849641 C96.1163813,7.32264313 96.1580482,6.44763677 96.2413834,5.59345109 C96.3247186,4.7392654 96.5278451,3.97363484 96.850769,3.29653643 C97.1736928,2.61943802 97.6476546,2.07255905 98.2726685,1.6558831 C98.8976824,1.23920716 99.762272,1.03087231 100.866463,1.03087231 C102.05399,1.03087231 102.98108,1.23920716 103.647761,1.6558831 C104.314443,2.07255905 104.80403,2.61943802 105.116537,3.29653643 C105.429044,3.97363484 105.621753,4.7392654 105.694672,5.59345109 C105.76759,6.44763677 105.804049,7.32264313 105.804049,8.21849641 L105.804049,35.5939691 L111.929154,35.5939691 C112.78334,35.5939691 113.627096,35.635636 114.460448,35.7189712 C115.2938,35.8023064 116.038597,36.0002245 116.694862,36.3127315 C117.351126,36.6252384 117.877172,37.0835751 118.273014,37.6877552 C118.668856,38.2919353 118.866774,39.114858 118.866774,40.1565478 C118.866774,41.2190715 118.668856,42.0576192 118.273014,42.6722163 C117.877172,43.2868133 117.351126,43.7503583 116.694862,44.0628653 C116.038597,44.3753722 115.2938,44.5732903 114.460448,44.6566255 C113.627096,44.7399607 112.78334,44.7816277 111.929154,44.7816277 L103.054001,44.7816277 C101.94981,44.7816277 100.970636,44.7399607 100.11645,44.6566255 C99.2622647,44.5732903 98.5383011,44.3753722 97.9445378,44.0628653 C97.3507746,43.7503583 96.8976463,43.2868133 96.5851394,42.6722163 C96.2726324,42.0576192 96.1163813,41.2190715 96.1163813,40.1565478 L96.1163813,8.21849641 Z M133.11702,25.9063018 L143.054692,25.9063018 L138.429612,9.1560126 L137.7421,9.1560126 L133.11702,25.9063018 Z M152.742359,28.9688547 C152.784027,30.3855529 152.83611,31.8334801 152.898612,33.3126797 C152.961113,34.7918793 152.992363,36.218973 152.992363,37.5940036 L152.992363,38.5315198 C152.992363,39.3232041 152.966321,40.0888346 152.914237,40.8284344 C152.862152,41.5680342 152.700693,42.2347057 152.429854,42.828469 C152.159014,43.4222322 151.731928,43.896194 151.148581,44.2503685 C150.565235,44.6045431 149.742312,44.7816277 148.679789,44.7816277 C147.596431,44.7816277 146.763092,44.6045431 146.179746,44.2503685 C145.596399,43.896194 145.164105,43.4274406 144.882848,42.8440942 C144.601592,42.2607479 144.434924,41.5940764 144.38284,40.8440597 C144.330755,40.094043 144.304713,39.3232041 144.304713,38.5315198 L144.304713,34.1564442 L131.804497,34.1564442 L131.804497,38.5315198 C131.804497,39.3232041 131.778456,40.094043 131.726371,40.8440597 C131.674287,41.5940764 131.507619,42.2607479 131.226362,42.8440942 C130.945106,43.4274406 130.512811,43.896194 129.929465,44.2503685 C129.346119,44.6045431 128.512779,44.7816277 127.429422,44.7816277 C126.346064,44.7816277 125.512725,44.6045431 124.929379,44.2503685 C124.346032,43.896194 123.918946,43.4222322 123.648107,42.828469 C123.377267,42.2347057 123.221016,41.5680342 123.179349,40.8284344 C123.137681,40.0888346 123.116847,39.3232041 123.116847,38.5315198 L123.116847,37.5940036 C123.116847,36.9481559 123.122056,36.2606509 123.132473,35.531468 C123.14289,34.8022851 123.158515,34.0626964 123.179349,33.3126797 C123.200182,32.562663 123.221016,31.8178659 123.24185,31.0782661 C123.262683,30.3386663 123.283517,29.6355362 123.304351,28.9688547 C124.346041,25.343774 125.439798,21.6718723 126.585657,17.9530395 C127.731516,14.2342067 128.825274,10.5518883 129.866964,6.90597375 C130.075302,6.13512325 130.325304,5.39032618 130.616977,4.67156017 C130.90865,3.95279417 131.29407,3.32778963 131.773247,2.7965278 C132.252424,2.26526597 132.867012,1.83817953 133.617029,1.51525568 C134.367045,1.19233182 135.325386,1.03087231 136.492078,1.03087231 L139.617132,1.03087231 C140.762991,1.03087231 141.716123,1.19233182 142.476557,1.51525568 C143.23699,1.83817953 143.856786,2.26526597 144.335964,2.7965278 C144.815141,3.32778963 145.195352,3.95279417 145.476609,4.67156017 C145.757865,5.39032618 146.013075,6.13512325 146.242247,6.90597375 L152.742359,28.9688547 Z M188.805482,41.906578 C188.805482,42.1774174 188.77944,42.4899197 188.727355,42.8440942 C188.675271,43.1982688 188.539853,43.5368129 188.321098,43.8597368 C188.102343,44.1826606 187.784633,44.4587043 187.367957,44.6878761 C186.951281,44.9170478 186.388777,45.031632 185.680428,45.031632 C184.888743,45.031632 184.263739,44.9222562 183.805395,44.7035013 C183.347052,44.4847465 182.998091,44.2139112 182.758502,43.8909873 C182.518914,43.5680635 182.362662,43.2295193 182.289744,42.8753448 C182.216826,42.5211702 182.180367,42.1982512 182.180367,41.906578 L182.180367,40.0315457 C181.180345,41.5107453 179.904294,42.713879 178.352176,43.640983 C176.800058,44.568087 174.888586,45.031632 172.617702,45.031632 C172.22186,45.031632 171.607272,45.0003818 170.77392,44.9378804 C169.940568,44.875379 169.003062,44.7087111 167.961372,44.4378718 C166.919682,44.1670324 165.846757,43.7607794 164.742566,43.2191007 C163.638375,42.677422 162.633159,41.9222082 161.726889,40.9534366 C160.820619,39.984665 160.075822,38.7763229 159.492475,37.328374 C158.909129,35.8804251 158.61746,34.1147873 158.61746,32.0314075 L158.61746,14.5311054 C158.61746,12.822734 158.825795,11.3123064 159.242471,9.99977717 C159.659147,8.68724794 160.206026,7.54661465 160.883125,6.57784308 C161.560223,5.60907151 162.33627,4.79656561 163.21129,4.140301 C164.086309,3.48403639 164.982149,2.93715741 165.898836,2.49964767 C168.023883,1.49962541 170.450984,0.926704578 173.180212,0.780867997 C175.492763,0.780867997 177.471944,1.04128656 179.117814,1.56213149 C180.763684,2.08297642 182.159528,2.76006467 183.305387,3.59341656 C184.451245,4.42676845 185.367919,5.36948363 186.055434,6.42159039 C186.742949,7.47369715 187.274203,8.54141324 187.649212,9.62477069 C188.02422,10.7081281 188.269013,11.7498024 188.383599,12.7498246 C188.498185,13.7498469 188.555477,14.6144365 188.555477,15.3436194 C188.555477,15.6561264 188.529435,16.0363375 188.477351,16.4842641 C188.425266,16.9321908 188.242973,17.3592772 187.930466,17.7655362 C187.61796,18.1717953 187.123164,18.5155478 186.446066,18.796804 C185.768967,19.0780603 184.805419,19.2186863 183.555391,19.2186863 C183.117881,19.2186863 182.581419,19.1926445 181.945988,19.14056 C181.310557,19.0884755 180.701178,18.9582662 180.117832,18.7499282 C179.534485,18.5415903 179.034482,18.2342964 178.617806,17.8280373 C178.20113,17.4217783 177.992795,16.8644826 177.992795,16.1561335 C177.992795,15.0311084 177.925086,14.0258928 177.789666,13.1404564 C177.654247,12.25502 177.409453,11.4998062 177.055279,10.8747923 C176.701104,10.2497784 176.211517,9.77581658 175.586503,9.45289272 C174.961489,9.12996887 174.1594,8.96850936 173.180212,8.96850936 C172.159356,8.96850936 171.372892,9.17684421 170.820796,9.59352015 C170.2687,10.0101961 169.867656,10.4685328 169.61765,10.9685439 C169.325977,11.5518902 169.159309,12.2185617 169.117642,12.9685784 L169.117642,32.9689237 C169.117642,33.6356052 169.237434,34.2606098 169.477023,34.8439561 C169.716612,35.4273024 170.055156,35.9377228 170.492665,36.3752325 C170.930175,36.8127423 171.445804,37.1564948 172.039567,37.4065004 C172.63333,37.6565059 173.284377,37.7815068 173.992726,37.7815068 C174.826078,37.7815068 175.581292,37.5992138 176.25839,37.2346224 C176.935488,36.8700309 177.544868,36.380444 178.086547,35.765847 C178.628225,35.15125 179.112604,34.4533283 179.539697,33.6720609 C179.966789,32.8907935 180.347001,32.0730792 180.680341,31.2188935 L177.68029,31.2188935 C177.076109,31.1563921 176.544856,31.000141 176.086512,30.7501354 C175.669836,30.5417975 175.300042,30.2292952 174.977118,29.8126192 C174.654194,29.3959433 174.492734,28.8230225 174.492734,28.0938396 C174.492734,27.3021553 174.654194,26.6927758 174.977118,26.265683 C175.300042,25.8385902 175.669836,25.5208795 176.086512,25.3125415 C176.544856,25.0833698 177.076109,24.9479521 177.68029,24.9062845 L185.80543,24.9062845 C185.951266,24.9062845 186.185643,24.9323264 186.508567,24.9844109 C186.831491,25.0364954 187.164827,25.1875381 187.508584,25.4375437 C187.852342,25.6875493 188.154427,26.0573436 188.41485,26.5469379 C188.675272,27.0365321 188.805482,27.7188287 188.805482,28.5938482 L188.805482,41.906578 Z M212.743395,1.03087231 C213.576747,1.03087231 214.420503,1.06212254 215.274689,1.12462393 C216.128874,1.18712532 216.899713,1.36420994 217.587229,1.6558831 C218.274744,1.94755627 218.837248,2.39026782 219.274758,2.98403104 C219.712267,3.57779426 219.931019,4.40592527 219.931019,5.46844893 C219.931019,6.53097259 219.712267,7.3591036 219.274758,7.95286682 C218.837248,8.54663004 218.274744,8.98934159 217.587229,9.28101476 C216.899713,9.57268792 216.128874,9.74977254 215.274689,9.81227393 C214.420503,9.87477532 213.576747,9.90602555 212.743395,9.90602555 L205.305766,9.90602555 L205.305766,18.4061723 L209.243334,18.4061723 C210.076686,18.4061723 210.915234,18.4322142 211.759003,18.4842987 C212.602772,18.5363831 213.352777,18.703051 214.009042,18.9843073 C214.665306,19.2655635 215.201769,19.69265 215.618445,20.2655794 C216.03512,20.8385088 216.243455,21.6353896 216.243455,22.6562457 C216.243455,23.6979355 216.03512,24.5000247 215.618445,25.0625372 C215.201769,25.6250498 214.665306,26.0469278 214.009042,26.3281841 C213.352777,26.6094403 212.602772,26.7761082 211.759003,26.8281927 C210.915234,26.8802772 210.076686,26.9063191 209.243334,26.9063191 L205.305766,26.9063191 L205.305766,35.9064745 L212.743395,35.9064745 C213.576747,35.9064745 214.420503,35.9377247 215.274689,36.0002261 C216.128874,36.0627275 216.899713,36.2346037 217.587229,36.51586 C218.274744,36.7971162 218.837248,37.2346194 219.274758,37.8283826 C219.712267,38.4221459 219.931019,39.2398601 219.931019,40.28155 C219.931019,41.3649074 219.707059,42.2086636 219.259132,42.8128437 C218.811206,43.4170238 218.243493,43.8649437 217.555978,44.1566169 C216.868463,44.4482901 216.097624,44.6253747 215.243438,44.6878761 C214.389252,44.7503775 213.555913,44.7816277 212.743395,44.7816277 L200.493183,44.7816277 C199.326491,44.7816277 198.425443,44.5732928 197.790012,44.1566169 C197.154581,43.739941 196.691036,43.193062 196.399363,42.5159636 C196.10769,41.8388652 195.935813,41.0732346 195.883729,40.2190489 C195.831644,39.3648632 195.805602,38.4898569 195.805602,37.5940036 L195.805602,8.21849641 C195.805602,7.32264313 195.831644,6.44763677 195.883729,5.59345109 C195.935813,4.7392654 196.10769,3.97363484 196.399363,3.29653643 C196.691036,2.61943802 197.154581,2.07255905 197.790012,1.6558831 C198.425443,1.23920716 199.326491,1.03087231 200.493183,1.03087231 L212.743395,1.03087231 Z M236.743809,39.5940381 C236.743809,41.3649109 236.295889,42.672212 235.400036,43.5159808 C234.504183,44.3597496 233.243757,44.7816277 231.618721,44.7816277 C229.952017,44.7816277 228.670758,44.3597496 227.774904,43.5159808 C226.879051,42.672212 226.431131,41.3649109 226.431131,39.5940381 C226.431131,37.8023316 226.879051,36.5002388 227.774904,35.6877207 C228.670758,34.8752026 229.952017,34.4689496 231.618721,34.4689496 C233.347926,34.4689496 234.634394,34.8752026 235.478162,35.6877207 C236.321931,36.5002388 236.743809,37.8023316 236.743809,39.5940381 Z M253.244094,25.9063018 L263.181766,25.9063018 L258.556686,9.1560126 L257.869174,9.1560126 L253.244094,25.9063018 Z M272.869433,28.9688547 C272.911101,30.3855529 272.963184,31.8334801 273.025686,33.3126797 C273.088187,34.7918793 273.119437,36.218973 273.119437,37.5940036 L273.119437,38.5315198 C273.119437,39.3232041 273.093395,40.0888346 273.041311,40.8284344 C272.989226,41.5680342 272.827767,42.2347057 272.556928,42.828469 C272.286088,43.4222322 271.859002,43.896194 271.275655,44.2503685 C270.692309,44.6045431 269.869387,44.7816277 268.806863,44.7816277 C267.723505,44.7816277 266.890166,44.6045431 266.30682,44.2503685 C265.723473,43.896194 265.291179,43.4274406 265.009922,42.8440942 C264.728666,42.2607479 264.561998,41.5940764 264.509914,40.8440597 C264.457829,40.094043 264.431787,39.3232041 264.431787,38.5315198 L264.431787,34.1564442 L251.931571,34.1564442 L251.931571,38.5315198 C251.931571,39.3232041 251.90553,40.094043 251.853445,40.8440597 C251.801361,41.5940764 251.634693,42.2607479 251.353437,42.8440942 C251.07218,43.4274406 250.639885,43.896194 250.056539,44.2503685 C249.473193,44.6045431 248.639853,44.7816277 247.556496,44.7816277 C246.473138,44.7816277 245.639799,44.6045431 245.056453,44.2503685 C244.473106,43.896194 244.04602,43.4222322 243.775181,42.828469 C243.504341,42.2347057 243.34809,41.5680342 243.306423,40.8284344 C243.264755,40.0888346 243.243921,39.3232041 243.243921,38.5315198 L243.243921,37.5940036 C243.243921,36.9481559 243.24913,36.2606509 243.259547,35.531468 C243.269964,34.8022851 243.285589,34.0626964 243.306423,33.3126797 C243.327256,32.562663 243.34809,31.8178659 243.368924,31.0782661 C243.389757,30.3386663 243.410591,29.6355362 243.431425,28.9688547 C244.473115,25.343774 245.566873,21.6718723 246.712731,17.9530395 C247.85859,14.2342067 248.952348,10.5518883 249.994038,6.90597375 C250.202376,6.13512325 250.452378,5.39032618 250.744051,4.67156017 C251.035724,3.95279417 251.421144,3.32778963 251.900321,2.7965278 C252.379498,2.26526597 252.994086,1.83817953 253.744103,1.51525568 C254.494119,1.19233182 255.45246,1.03087231 256.619152,1.03087231 L259.744206,1.03087231 C260.890065,1.03087231 261.843197,1.19233182 262.603631,1.51525568 C263.364064,1.83817953 263.983861,2.26526597 264.463038,2.7965278 C264.942215,3.32778963 265.322426,3.95279417 265.603683,4.67156017 C265.884939,5.39032618 266.140149,6.13512325 266.369321,6.90597375 L272.869433,28.9688547 Z M289.369718,27.5313299 L289.369718,37.6565047 C289.369718,38.5523579 289.343676,39.4273643 289.291592,40.28155 C289.239507,41.1357357 289.062422,41.8961579 288.760332,42.5628394 C288.458242,43.2295209 287.984281,43.7659831 287.338433,44.1722422 C286.692585,44.5785012 285.765495,44.7816277 284.557135,44.7816277 C283.390442,44.7816277 282.489394,44.5785012 281.853963,44.1722422 C281.218532,43.7659831 280.754987,43.2295209 280.463314,42.5628394 C280.171641,41.8961579 279.999765,41.1357357 279.94768,40.28155 C279.895596,39.4273643 279.869554,38.5523579 279.869554,37.6565047 L279.869554,8.15599533 C279.869554,7.26014205 279.895596,6.38513569 279.94768,5.53095001 C279.999765,4.67676432 280.171641,3.91634213 280.463314,3.24966062 C280.754987,2.58297911 281.218532,2.04651688 281.853963,1.64025783 C282.489394,1.23399879 283.390442,1.03087231 284.557135,1.03087231 L294.869813,1.03087231 C297.453204,1.1558751 299.76572,1.6975457 301.807433,2.65590037 C302.682452,3.07257631 303.531417,3.59341343 304.354352,4.21842735 C305.177287,4.84344126 305.916875,5.60907183 306.57314,6.51534201 C307.229405,7.42161218 307.75545,8.49453665 308.151292,9.73414758 C308.547134,10.9737585 308.745052,12.4060606 308.745052,14.0310968 C308.745052,16.2603131 308.396092,18.2134523 307.698159,19.8905729 C307.000227,21.5676936 305.989803,22.9739538 304.666857,24.1093958 C303.343911,25.2448377 301.729316,26.0990106 299.823023,26.67194 C297.916731,27.2448694 295.765674,27.5313299 293.369787,27.5313299 L289.369718,27.5313299 Z M293.619791,20.0937014 C294.661481,20.0312 295.598988,19.7811982 296.43234,19.3436885 C296.786514,19.1561843 297.130267,18.9165992 297.463608,18.6249261 C297.796948,18.3332529 298.099034,17.9738753 298.369873,17.5467825 C298.640713,17.1196896 298.854256,16.6144776 299.010509,16.0311313 C299.166763,15.447785 299.244888,14.7811135 299.244888,14.0310968 C299.244888,13.3227477 299.166763,12.7029515 299.010509,12.1716897 C298.854256,11.6404278 298.651129,11.1820912 298.401124,10.7966659 C298.151118,10.4112407 297.869866,10.0831133 297.557359,9.81227393 C297.244852,9.54143456 296.921933,9.31226623 296.588593,9.12476206 C295.796908,8.72891991 294.911485,8.48933484 293.932297,8.40599965 L289.369718,8.40599965 L289.369718,20.0937014 L293.619791,20.0937014 Z M323.182802,27.5313299 L323.182802,37.6565047 C323.182802,38.5523579 323.15676,39.4273643 323.104675,40.28155 C323.052591,41.1357357 322.875506,41.8961579 322.573416,42.5628394 C322.271326,43.2295209 321.797364,43.7659831 321.151517,44.1722422 C320.505669,44.5785012 319.578579,44.7816277 318.370219,44.7816277 C317.203526,44.7816277 316.302478,44.5785012 315.667047,44.1722422 C315.031616,43.7659831 314.568071,43.2295209 314.276398,42.5628394 C313.984725,41.8961579 313.812848,41.1357357 313.760764,40.28155 C313.708679,39.4273643 313.682638,38.5523579 313.682638,37.6565047 L313.682638,8.15599533 C313.682638,7.26014205 313.708679,6.38513569 313.760764,5.53095001 C313.812848,4.67676432 313.984725,3.91634213 314.276398,3.24966062 C314.568071,2.58297911 315.031616,2.04651688 315.667047,1.64025783 C316.302478,1.23399879 317.203526,1.03087231 318.370219,1.03087231 L328.682897,1.03087231 C331.266287,1.1558751 333.578804,1.6975457 335.620516,2.65590037 C336.495536,3.07257631 337.3445,3.59341343 338.167435,4.21842735 C338.99037,4.84344126 339.729959,5.60907183 340.386224,6.51534201 C341.042488,7.42161218 341.568534,8.49453665 341.964376,9.73414758 C342.360218,10.9737585 342.558136,12.4060606 342.558136,14.0310968 C342.558136,16.2603131 342.209175,18.2134523 341.511243,19.8905729 C340.813311,21.5676936 339.802887,22.9739538 338.479941,24.1093958 C337.156995,25.2448377 335.5424,26.0990106 333.636107,26.67194 C331.729815,27.2448694 329.578757,27.5313299 327.182871,27.5313299 L323.182802,27.5313299 Z M327.432875,20.0937014 C328.474565,20.0312 329.412072,19.7811982 330.245424,19.3436885 C330.599598,19.1561843 330.943351,18.9165992 331.276691,18.6249261 C331.610032,18.3332529 331.912118,17.9738753 332.182957,17.5467825 C332.453796,17.1196896 332.66734,16.6144776 332.823593,16.0311313 C332.979847,15.447785 333.057972,14.7811135 333.057972,14.0310968 C333.057972,13.3227477 332.979847,12.7029515 332.823593,12.1716897 C332.66734,11.6404278 332.464213,11.1820912 332.214208,10.7966659 C331.964202,10.4112407 331.68295,10.0831133 331.370443,9.81227393 C331.057936,9.54143456 330.735017,9.31226623 330.401676,9.12476206 C329.609992,8.72891991 328.724569,8.48933484 327.74538,8.40599965 L323.182802,8.40599965 L323.182802,20.0937014 L327.432875,20.0937014 Z" id="path-7"></path>
    </defs>
    <g id="Landingpage" stroke="none" stroke-width="1" fill="none" fill-rule="evenodd">
        <g id="Desktop-v2" transform="translate(-293.000000, -36.000000)">
            <g id="logo-anlage-app" transform="translate(293.000000, 36.000000)">
                <g id="logo/finalyzer-logo" transform="translate(0.556411, 0.752909)">
                    <g id="Group">
                        <g id="Path-+-Rectangle-Mask">
                            <g id="Combined-Shape" transform="translate(21.404814, 21.551422)">
                                <mask id="mask-2" fill="white">
                                    <use xlink:href="#path-1"></use>
                                </mask>
                                <use fill="#E29B4A" fill-rule="nonzero" xlink:href="#path-1"></use>
                                <g id="color/green" mask="url(#mask-2)" fill="#97C965">
                                    <rect id="color" x="0" y="0" width="67" height="67"></rect>
                                </g>
                            </g>
                            <g id="Group-3" transform="translate(5.571116, 5.424508)">
                                <mask id="mask-4" fill="white">
                                    <use xlink:href="#path-3"></use>
                                </mask>
                                <use id="Mask" fill="#E29B4A" fill-rule="nonzero" xlink:href="#path-3"></use>
                                <g id="color/green" mask="url(#mask-4)" fill="#97C965">
                                    <g transform="translate(-5.571116, -5.424508)" id="color">
                                        <rect x="0" y="0" width="67" height="67"></rect>
                                    </g>
                                </g>
                            </g>
                            <g id="Group-2">
                                <mask id="mask-6" fill="white">
                                    <use xlink:href="#path-5"></use>
                                </mask>
                                <use id="Path" fill="#E29B4A" fill-rule="nonzero" xlink:href="#path-5"></use>
                                <g id="color/green" mask="url(#mask-6)" fill="#97C965">
                                    <rect id="color" x="0" y="0" width="67" height="67"></rect>
                                </g>
                            </g>
                        </g>
                    </g>
                </g>
                <g id="Anlage.App-Logo-Text" transform="translate(95.500000, 11.346734)">
                    <g id="color/white">
                        <g>
                            <mask id="mask-8" fill="white">
                                <use xlink:href="#path-7"></use>
                            </mask>
                            <use id="Mask" fill="#FFFFFF" xlink:href="#path-7"></use>
                            <g id="color/green" mask="url(#mask-8)" fill="#97C965">
                                <g transform="translate(-57.220932, -205.593750)" id="color">
                                    <rect x="0" y="0" width="457" height="457"></rect>
                                </g>
                            </g>
                        </g>
                    </g>
                </g>
            </g>
        </g>
    </g>
</svg>