<?xml version="1.0" encoding="UTF-8"?>
<svg width="1489px" height="231px" viewBox="0 0 1489 231" version="1.1" xmlns="http://www.w3.org/2000/svg" xmlns:xlink="http://www.w3.org/1999/xlink">
    <!-- Generator: Sketch 54.1 (76490) - https://sketchapp.com -->
    <title>logo-with-text-orange</title>
    <desc>Created with Sketch.</desc>
    <defs>
        <path d="M153.600948,158.79212 L127.633126,158.79212 C125.976272,158.79212 124.633126,157.448974 124.633126,155.79212 L124.633126,123.683666 C124.633126,122.026812 123.289981,120.683666 121.633126,120.683666 L34.9678213,120.683666 C33.310967,120.683666 31.9678213,122.026812 31.9678213,123.683666 L31.9678213,155.79212 C31.9678213,157.448974 30.6246755,158.79212 28.9678213,158.79212 L3,158.79212 C1.34314575,158.79212 -2.41183085e-16,157.448974 -4.4408921e-16,155.79212 L1.58732761e-14,81.1677989 C1.58732761e-14,69.8362515 1.96568261,59.4070537 5.89710681,49.8798928 C9.82853101,40.3527319 15.2887605,32.1609399 22.2779591,25.3042711 C29.2671576,18.4476022 37.5303049,13.1066982 47.0676488,9.28139876 C56.6049927,5.4560993 67.0158302,3.54347826 78.3004738,3.54347826 L142.295003,3.54347826 C144.260715,3.54347826 146.117193,3.90435015 147.864493,4.62610477 C149.611793,5.34785938 151.140657,6.35830069 152.451132,7.65745899 C153.761606,8.9566173 154.780849,10.4722793 155.508891,12.2044903 C156.236932,13.9367014 156.600948,15.7771481 156.600948,17.7258855 L156.600948,155.79212 C156.600948,157.448974 155.257802,158.79212 153.600948,158.79212 Z M34.2078971,90.7100689 L122.39305,90.7100689 C123.950493,90.7100689 125.21305,89.4475119 125.21305,87.8900689 L125.21305,36.3370758 C125.21305,34.7796328 123.950493,33.5170758 122.39305,33.5170758 L78.3004738,33.5170758 C77.4792429,33.5170758 75.7512623,33.6358027 73.1164801,33.87326 C70.4816978,34.1107172 67.4363458,34.7043515 63.9803328,35.6541806 C60.5243197,36.6040096 56.8801625,38.0626538 53.047752,40.0301569 C49.2153415,41.99766 45.6909453,44.7114166 42.4744579,48.1715082 C39.2579705,51.6315998 36.6061191,55.9566495 34.518824,61.1467869 C32.431529,66.3369243 31.3878971,72.6294475 31.3878971,80.0245453 L31.3878971,87.8900689 C31.3878971,89.4475119 32.6504541,90.7100689 34.2078971,90.7100689 Z M274.075501,112.838183 L276.756306,112.838183 L276.756306,20.9276284 C276.756306,18.565257 276.905238,16.3321112 277.203106,14.2281242 C277.500975,12.1241371 278.152553,10.2970178 279.15786,8.74671158 C280.163166,7.19640532 281.652487,5.95987007 283.625867,5.03706873 C285.599246,4.11426738 288.29864,3.65287363 291.72413,3.65287363 C295.521955,3.65287363 298.519213,4.11426738 300.715994,5.03706873 C302.912775,5.95987007 304.569645,7.19640532 305.686652,8.74671158 C306.80366,10.2970178 307.511087,12.1241371 307.808956,14.2281242 C308.106824,16.3321112 308.255756,18.565257 308.255756,20.9276284 L308.255756,133.213534 C308.255756,136.461795 308.162674,139.599273 307.976506,142.626061 C307.790338,145.65285 307.19461,148.365845 306.189303,150.765128 C305.183996,153.164412 303.545743,155.08381 301.274495,156.52338 C299.003247,157.96295 295.819824,158.682724 291.72413,158.682724 L276.979706,158.682724 C273.47975,158.682724 270.556958,157.999861 268.211242,156.634115 C265.865527,155.268369 263.910793,153.607352 262.346983,151.651013 C260.783172,149.694674 259.535866,147.646086 258.605027,145.505187 C257.674187,143.364288 256.948143,141.555624 256.426873,140.079142 L222.693419,49.4974152 L220.012615,49.4974152 L220.012615,141.407969 C220.012615,143.770341 219.863683,146.003487 219.565814,148.107474 C219.267945,150.211461 218.616367,152.03858 217.611061,153.588886 C216.605754,155.139193 215.116433,156.375728 213.143054,157.298529 C211.169674,158.22133 208.47028,158.682724 205.044791,158.682724 C201.172498,158.682724 198.119391,158.22133 195.885376,157.298529 C193.651361,156.375728 191.975875,155.139193 190.858868,153.588886 C189.741861,152.03858 189.034433,150.211461 188.736564,148.107474 C188.438696,146.003487 188.289764,143.770341 188.289764,141.407969 L188.289764,29.1220634 C188.289764,25.9476267 188.382846,22.828605 188.569014,19.7649045 C188.755182,16.7012041 189.369527,13.9697531 190.412067,11.5704696 C191.454607,9.17118608 193.111477,7.25178808 195.382725,5.81221798 C197.653973,4.37264788 200.87463,3.65287363 205.044791,3.65287363 L219.789214,3.65287363 C223.512572,3.65287363 226.547063,4.37264788 228.892779,5.81221798 C231.238494,7.25178808 233.155995,8.82052683 234.645338,10.5184813 C236.283616,12.5117322 237.586771,14.8002452 238.554844,17.384089 L274.075501,112.838183 Z M343.553013,29.1220634 C343.553013,25.9476267 343.701945,22.8470607 343.999814,19.8202723 C344.297682,16.7934839 345.023726,14.0804887 346.177967,11.6812052 C347.332208,9.28192169 349.026311,7.34406793 351.260325,5.86758578 C353.49434,4.39110363 356.584681,3.65287363 360.53144,3.65287363 C364.776068,3.65287363 368.089807,4.39110363 370.472756,5.86758578 C372.855705,7.34406793 374.605657,9.28192169 375.722665,11.6812052 C376.839672,14.0804887 377.528483,16.7934839 377.789118,19.8202723 C378.049753,22.8470607 378.180069,25.9476267 378.180069,29.1220634 L378.180069,126.126456 L400.073304,126.126456 C403.126457,126.126456 406.142332,126.274102 409.121018,126.569398 C412.099705,126.864694 414.761866,127.566013 417.107581,128.673375 C419.453297,129.780736 421.333564,131.404842 422.74844,133.545741 C424.163316,135.68664 424.870743,138.602649 424.870743,142.293854 C424.870743,146.058884 424.163316,149.03026 422.74844,151.208071 C421.333564,153.385882 419.453297,155.028444 417.107581,156.135805 C414.761866,157.243167 412.099705,157.944485 409.121018,158.239782 C406.142332,158.535078 403.126457,158.682724 400.073304,158.682724 L368.350453,158.682724 C364.403693,158.682724 360.903789,158.535078 357.850636,158.239782 C354.797482,157.944485 352.209787,157.243167 350.087473,156.135805 C347.965159,155.028444 346.345523,153.385882 345.228516,151.208071 C344.111508,149.03026 343.553013,146.058884 343.553013,142.293854 L343.553013,29.1220634 Z M475.806025,91.7984172 L511.326682,91.7984172 L494.795056,32.4441316 L492.337652,32.4441316 L475.806025,91.7984172 Z M545.953738,102.650507 C546.102672,107.670546 546.288837,112.801245 546.512239,118.042756 C546.73564,123.284268 546.847339,128.341143 546.847339,133.213534 L546.847339,136.535603 C546.847339,139.340919 546.754257,142.053914 546.568089,144.67467 C546.381921,147.295426 545.804809,149.657762 544.836736,151.761749 C543.868663,153.865736 542.342109,155.545209 540.257029,156.800219 C538.171948,158.055229 535.23054,158.682724 531.432715,158.682724 C527.560422,158.682724 524.581781,158.055229 522.4967,156.800219 C520.41162,155.545209 518.866449,153.884192 517.861143,151.817117 C516.855836,149.750042 516.260108,147.387706 516.07394,144.730038 C515.887772,142.07237 515.794689,139.340919 515.794689,136.535603 L515.794689,121.032618 L471.114618,121.032618 L471.114618,136.535603 C471.114618,139.340919 471.021535,142.07237 470.835367,144.730038 C470.649199,147.387706 470.053471,149.750042 469.048164,151.817117 C468.042858,153.884192 466.497687,155.545209 464.412607,156.800219 C462.327527,158.055229 459.348885,158.682724 455.476593,158.682724 C451.6043,158.682724 448.625659,158.055229 446.540578,156.800219 C444.455498,155.545209 442.928944,153.865736 441.960871,151.761749 C440.992798,149.657762 440.434303,147.295426 440.285368,144.67467 C440.136434,142.053914 440.061968,139.340919 440.061968,136.535603 L440.061968,133.213534 C440.061968,130.924987 440.080584,128.488828 440.117818,125.904984 C440.155052,123.321141 440.210901,120.700424 440.285368,118.042756 C440.359835,115.385088 440.434301,112.745916 440.508769,110.12516 C440.583236,107.504404 440.657702,105.012878 440.732169,102.650507 C444.455527,89.8051121 448.364994,76.7938083 452.460688,63.6162051 C456.556381,50.4386019 460.465849,37.3903867 464.189207,24.4711679 C464.933878,21.7396759 465.827471,19.1005036 466.870011,16.5535719 C467.912551,14.0066402 469.290173,11.7919502 471.002918,9.90943546 C472.715662,8.02692072 474.91241,6.51354922 477.593228,5.36927555 C480.274046,4.22500188 483.699484,3.65287363 487.869645,3.65287363 L499.039663,3.65287363 C503.135356,3.65287363 506.542178,4.22500188 509.260229,5.36927555 C511.97828,6.51354922 514.193645,8.02692072 515.90639,9.90943546 C517.619134,11.7919502 518.978139,14.0066402 519.983446,16.5535719 C520.988753,19.1005036 521.900962,21.7396759 522.720101,24.4711679 L545.953738,102.650507 Z M674.855745,148.495048 C674.855745,149.454762 674.762662,150.562107 674.576494,151.817117 C674.390326,153.072126 673.906297,154.27175 673.124392,155.416024 C672.342487,156.560297 671.20688,157.538452 669.717536,158.350517 C668.228193,159.162583 666.21761,159.568609 663.685727,159.568609 C660.855975,159.568609 658.621993,159.181038 656.983716,158.405885 C655.345439,157.630732 654.098132,156.671033 653.24176,155.526759 C652.385388,154.382486 651.826892,153.182862 651.566257,151.927852 C651.305622,150.672842 651.175307,149.528586 651.175307,148.495048 L651.175307,141.850912 C647.600883,147.092423 643.039838,151.355702 637.492035,154.640875 C631.944231,157.926047 625.111972,159.568609 616.995052,159.568609 C615.580176,159.568609 613.383428,159.457875 610.404741,159.236402 C607.426055,159.01493 604.075083,158.424346 600.351725,157.464633 C596.628367,156.504919 592.793366,155.065371 588.846607,153.145944 C584.899847,151.226517 581.306861,148.550433 578.067539,145.117612 C574.828218,141.684791 572.166057,137.403057 570.080977,132.272282 C567.995896,127.141506 566.953372,120.885007 566.953372,113.502596 L566.953372,51.4906561 C566.953372,45.4370793 567.698032,40.0849118 569.187375,35.433993 C570.676718,30.7830742 572.631452,26.741265 575.051635,23.308444 C577.471817,19.875623 580.245677,16.996526 583.373298,14.6710666 C586.500919,12.3456072 589.702958,10.4077534 592.979513,8.85744719 C600.575163,5.31389003 609.250457,3.28375753 619.005655,2.76698877 C627.27151,2.76698877 634.345784,3.68977627 640.228689,5.53537896 C646.111595,7.38098165 651.100819,9.78022915 655.196513,12.7331935 C659.292207,15.6861578 662.568713,19.0266485 665.026129,22.7547659 C667.483545,26.4828834 669.382429,30.2663121 670.722838,34.1051657 C672.063247,37.9440193 672.938223,41.6351693 673.347792,45.1787265 C673.757362,48.7222836 673.962143,51.7859381 673.962143,54.3697819 C673.962143,55.4771435 673.869061,56.8244133 673.682893,58.4116316 C673.496725,59.9988499 672.845147,61.5122214 671.72814,62.9517915 C670.611132,64.3913616 668.842564,65.6094411 666.422381,66.6060665 C664.002199,67.602692 660.558144,68.1009972 656.090115,68.1009972 C654.526304,68.1009972 652.608804,68.0087185 650.337555,67.8241582 C648.066307,67.6395979 645.888175,67.1782042 643.803095,66.4399631 C641.718014,65.701722 639.930829,64.6128328 638.441486,63.1732627 C636.952143,61.7336926 636.207483,59.7589273 636.207483,57.2489077 C636.207483,53.2624059 635.965468,49.7004461 635.481431,46.5629216 C634.997395,43.425397 634.122419,40.7493132 632.856477,38.53459 C631.590536,36.3198668 629.840584,34.6403935 627.606569,33.4961199 C625.372554,32.3518462 622.505612,31.7797179 619.005655,31.7797179 C615.356764,31.7797179 612.545671,32.517948 610.572292,33.9944301 C608.598912,35.4709122 607.165441,37.0950183 606.271835,38.8667968 C605.229294,40.9338718 604.633566,43.2962078 604.484632,45.9538757 L604.484632,116.824665 C604.484632,119.187036 604.912811,121.401726 605.769184,123.468801 C606.625556,125.535876 607.835629,127.34454 609.39944,128.894846 C610.96325,130.445152 612.806284,131.663232 614.928599,132.549121 C617.050913,133.43501 619.377976,133.877948 621.90986,133.877948 C624.888546,133.877948 627.58794,133.231997 630.008123,131.940075 C632.428305,130.648153 634.606437,128.913313 636.542583,126.735501 C638.478729,124.55769 640.210065,122.08462 641.736642,119.316216 C643.263218,116.547812 644.622224,113.650259 645.813698,110.623471 L635.090481,110.623471 C632.930933,110.401998 631.032049,109.848326 629.393772,108.962436 C627.904429,108.224195 626.582656,107.11685 625.428415,105.640368 C624.274174,104.163886 623.697063,102.133754 623.697063,99.5499098 C623.697063,96.7445937 624.274174,94.5852709 625.428415,93.0718767 C626.582656,91.5584825 627.904429,90.4326818 629.393772,89.6944407 C631.032049,88.8823755 632.930933,88.402526 635.090481,88.2548778 L664.132527,88.2548778 C664.653798,88.2548778 665.491541,88.3471565 666.645782,88.5317168 C667.800022,88.7162771 668.991479,89.2514938 670.220187,90.1373831 C671.448895,91.0232724 672.528653,92.3336307 673.459492,94.0684972 C674.390332,95.8033637 674.855745,98.221067 674.855745,101.321679 L674.855745,148.495048 Z M760.418082,3.65287363 C763.396768,3.65287363 766.412643,3.76360813 769.465797,3.98508046 C772.51895,4.20655278 775.274194,4.83404828 777.73161,5.86758578 C780.189026,6.90112329 782.199609,8.46986204 783.763419,10.5738491 C785.32723,12.6778362 786.109123,15.6123004 786.109123,19.3773299 C786.109123,23.1423594 785.32723,26.0768236 783.763419,28.1808107 C782.199609,30.2847978 780.189026,31.8535365 777.73161,32.887074 C775.274194,33.9206115 772.51895,34.548107 769.465797,34.7695794 C766.412643,34.9910517 763.396768,35.1017862 760.418082,35.1017862 L733.833439,35.1017862 L733.833439,65.2218714 L747.907662,65.2218714 C750.886348,65.2218714 753.883606,65.3141502 756.899526,65.4987104 C759.915446,65.6832707 762.596224,66.2738547 764.941939,67.2704802 C767.287655,68.2671056 769.205155,69.7804771 770.694499,71.8106401 C772.183842,73.840803 772.928502,76.6645328 772.928502,80.2819141 C772.928502,83.9731194 772.183842,86.8153049 770.694499,88.8085558 C769.205155,90.8018067 767.287655,92.2967225 764.941939,93.2933479 C762.596224,94.2899734 759.915446,94.8805574 756.899526,95.0651177 C753.883606,95.2496779 750.886348,95.3419567 747.907662,95.3419567 L733.833439,95.3419567 L733.833439,127.233812 L760.418082,127.233812 C763.396768,127.233812 766.412643,127.344546 769.465797,127.566018 C772.51895,127.787491 775.274194,128.396531 777.73161,129.393156 C780.189026,130.389781 782.199609,131.940064 783.763419,134.044052 C785.32723,136.148039 786.109123,139.045591 786.109123,142.736797 C786.109123,146.57565 785.308613,149.565482 783.707569,151.706381 C782.106525,153.84728 780.077326,155.434475 777.61991,156.468012 C775.162493,157.50155 772.40725,158.129045 769.354096,158.350517 C766.300943,158.57199 763.322301,158.682724 760.418082,158.682724 L716.631612,158.682724 C712.461451,158.682724 709.240795,157.944494 706.969546,156.468012 C704.698298,154.99153 703.041428,153.053676 701.998888,150.654393 C700.956348,148.255109 700.342003,145.542114 700.155835,142.515325 C699.969667,139.488537 699.876585,136.387971 699.876585,133.213534 L699.876585,29.1220634 C699.876585,25.9476267 699.969667,22.8470607 700.155835,19.8202723 C700.342003,16.7934839 700.956348,14.0804887 701.998888,11.6812052 C703.041428,9.28192169 704.698298,7.34406793 706.969546,5.86758578 C709.240795,4.39110363 712.461451,3.65287363 716.631612,3.65287363 L760.418082,3.65287363 Z M846.20382,140.300613 C846.20382,146.575662 844.6028,151.208056 841.400712,154.197932 C838.198624,157.187808 833.693429,158.682724 827.88499,158.682724 C821.927618,158.682724 817.347956,157.187808 814.145868,154.197932 C810.94378,151.208056 809.342761,146.575662 809.342761,140.300613 C809.342761,133.95174 810.94378,129.337803 814.145868,126.458662 C817.347956,123.579522 821.927618,122.139974 827.88499,122.139974 C834.065764,122.139974 838.664043,123.579522 841.679962,126.458662 C844.695882,129.337803 846.20382,133.95174 846.20382,140.300613 Z M905.181514,91.7984172 L940.702171,91.7984172 L924.170545,32.4441316 L921.713141,32.4441316 L905.181514,91.7984172 Z M975.329227,102.650507 C975.478161,107.670546 975.664326,112.801245 975.887728,118.042756 C976.111129,123.284268 976.222828,128.341143 976.222828,133.213534 L976.222828,136.535603 C976.222828,139.340919 976.129746,142.053914 975.943578,144.67467 C975.75741,147.295426 975.180298,149.657762 974.212225,151.761749 C973.244152,153.865736 971.717598,155.545209 969.632518,156.800219 C967.547437,158.055229 964.606029,158.682724 960.808204,158.682724 C956.935911,158.682724 953.95727,158.055229 951.872189,156.800219 C949.787109,155.545209 948.241938,153.884192 947.236632,151.817117 C946.231325,149.750042 945.635597,147.387706 945.449429,144.730038 C945.263261,142.07237 945.170179,139.340919 945.170179,136.535603 L945.170179,121.032618 L900.490107,121.032618 L900.490107,136.535603 C900.490107,139.340919 900.397024,142.07237 900.210856,144.730038 C900.024688,147.387706 899.42896,149.750042 898.423654,151.817117 C897.418347,153.884192 895.873177,155.545209 893.788096,156.800219 C891.703016,158.055229 888.724374,158.682724 884.852082,158.682724 C880.979789,158.682724 878.001148,158.055229 875.916067,156.800219 C873.830987,155.545209 872.304433,153.865736 871.33636,151.761749 C870.368287,149.657762 869.809792,147.295426 869.660857,144.67467 C869.511923,142.053914 869.437457,139.340919 869.437457,136.535603 L869.437457,133.213534 C869.437457,130.924987 869.456073,128.488828 869.493307,125.904984 C869.530541,123.321141 869.58639,120.700424 869.660857,118.042756 C869.735325,115.385088 869.809791,112.745916 869.884258,110.12516 C869.958725,107.504404 870.033191,105.012878 870.107658,102.650507 C873.831016,89.8051121 877.740483,76.7938083 881.836177,63.6162051 C885.931871,50.4386019 889.841338,37.3903867 893.564696,24.4711679 C894.309367,21.7396759 895.20296,19.1005036 896.2455,16.5535719 C897.28804,14.0066402 898.665662,11.7919502 900.378407,9.90943546 C902.091151,8.02692072 904.2879,6.51354922 906.968717,5.36927555 C909.649535,4.22500188 913.074973,3.65287363 917.245134,3.65287363 L928.415152,3.65287363 C932.510845,3.65287363 935.917667,4.22500188 938.635718,5.36927555 C941.353769,6.51354922 943.569134,8.02692072 945.281879,9.90943546 C946.994623,11.7919502 948.353629,14.0066402 949.358935,16.5535719 C950.364242,19.1005036 951.276451,21.7396759 952.09559,24.4711679 L975.329227,102.650507 Z M1034.30692,97.5566688 L1034.30692,133.435006 C1034.30692,136.609442 1034.21384,139.710008 1034.02767,142.736797 C1033.8415,145.763585 1033.20854,148.458125 1032.12877,150.820496 C1031.04899,153.182867 1029.35489,155.08381 1027.04641,156.52338 C1024.73793,157.96295 1021.42419,158.682724 1017.10509,158.682724 C1012.93493,158.682724 1009.71428,157.96295 1007.44303,156.52338 C1005.17178,155.08381 1003.51491,153.182867 1002.47237,150.820496 C1001.42983,148.458125 1000.81549,145.763585 1000.62932,142.736797 C1000.44315,139.710008 1000.35007,136.609442 1000.35007,133.435006 L1000.35007,28.9005922 C1000.35007,25.7261555 1000.44315,22.6255895 1000.62932,19.5988011 C1000.81549,16.5720127 1001.42983,13.8774732 1002.47237,11.5151018 C1003.51491,9.15273033 1005.17178,7.25178808 1007.44303,5.81221798 C1009.71428,4.37264788 1012.93493,3.65287363 1017.10509,3.65287363 L1053.96615,3.65287363 C1063.20008,4.09581828 1071.46581,6.01521628 1078.76359,9.41112523 C1081.89121,10.8876074 1084.9257,12.7331824 1087.86716,14.9479056 C1090.80861,17.1626288 1093.45215,19.8756241 1095.79787,23.0869728 C1098.14359,26.2983214 1100.02385,30.1002059 1101.43873,34.4927403 C1102.85361,38.8852747 1103.56103,43.960606 1103.56103,49.7188864 C1103.56103,57.6180659 1102.31373,64.5389721 1099.81908,70.4818128 C1097.32443,76.4246534 1093.71282,81.4077059 1088.98416,85.4311198 C1084.25549,89.4545337 1078.48438,92.4812767 1071.67063,94.5114396 C1064.85689,96.5416026 1057.16827,97.5566688 1048.60454,97.5566688 L1034.30692,97.5566688 Z M1049.49815,71.2015942 C1053.2215,70.9801219 1056.57248,70.0942459 1059.55116,68.5439397 C1060.8171,67.8795227 1062.04579,67.0305582 1063.23727,65.9970207 C1064.42874,64.9634832 1065.5085,63.6900364 1066.47657,62.1766422 C1067.44465,60.663248 1068.20792,58.8730403 1068.76643,56.8059653 C1069.32493,54.7388902 1069.60418,52.3765542 1069.60418,49.7188864 C1069.60418,47.2088667 1069.32493,45.0126325 1068.76643,43.1301177 C1068.20792,41.247603 1067.48188,39.623497 1066.58827,38.257751 C1065.69467,36.892005 1064.68938,35.7292928 1063.57237,34.7695794 C1062.45536,33.809866 1061.30114,32.997813 1060.10966,32.333396 C1057.27991,30.9307379 1054.1151,30.0817734 1050.61515,29.786477 L1034.30692,29.786477 L1034.30692,71.2015942 L1049.49815,71.2015942 Z M1155.16652,97.5566688 L1155.16652,133.435006 C1155.16652,136.609442 1155.07343,139.710008 1154.88727,142.736797 C1154.7011,145.763585 1154.06814,148.458125 1152.98836,150.820496 C1151.90859,153.182867 1150.21449,155.08381 1147.906,156.52338 C1145.59752,157.96295 1142.28378,158.682724 1137.96469,158.682724 C1133.79453,158.682724 1130.57387,157.96295 1128.30262,156.52338 C1126.03137,155.08381 1124.3745,153.182867 1123.33196,150.820496 C1122.28942,148.458125 1121.67508,145.763585 1121.48891,142.736797 C1121.30274,139.710008 1121.20966,136.609442 1121.20966,133.435006 L1121.20966,28.9005922 C1121.20966,25.7261555 1121.30274,22.6255895 1121.48891,19.5988011 C1121.67508,16.5720127 1122.28942,13.8774732 1123.33196,11.5151018 C1124.3745,9.15273033 1126.03137,7.25178808 1128.30262,5.81221798 C1130.57387,4.37264788 1133.79453,3.65287363 1137.96469,3.65287363 L1174.82575,3.65287363 C1184.05967,4.09581828 1192.32541,6.01521628 1199.62319,9.41112523 C1202.75081,10.8876074 1205.7853,12.7331824 1208.72675,14.9479056 C1211.6682,17.1626288 1214.31175,19.8756241 1216.65746,23.0869728 C1219.00318,26.2983214 1220.88345,30.1002059 1222.29832,34.4927403 C1223.7132,38.8852747 1224.42063,43.960606 1224.42063,49.7188864 C1224.42063,57.6180659 1223.17332,64.5389721 1220.67867,70.4818128 C1218.18402,76.4246534 1214.57242,81.4077059 1209.84375,85.4311198 C1205.11509,89.4545337 1199.34397,92.4812767 1192.53023,94.5114396 C1185.71648,96.5416026 1178.02786,97.5566688 1169.46414,97.5566688 L1155.16652,97.5566688 Z M1170.35774,71.2015942 C1174.0811,70.9801219 1177.43207,70.0942459 1180.41076,68.5439397 C1181.6767,67.8795227 1182.90539,67.0305582 1184.09686,65.9970207 C1185.28834,64.9634832 1186.36809,63.6900364 1187.33617,62.1766422 C1188.30424,60.663248 1189.06752,58.8730403 1189.62602,56.8059653 C1190.18452,54.7388902 1190.46377,52.3765542 1190.46377,49.7188864 C1190.46377,47.2088667 1190.18452,45.0126325 1189.62602,43.1301177 C1189.06752,41.247603 1188.34147,39.623497 1187.44787,38.257751 C1186.55426,36.892005 1185.54897,35.7292928 1184.43196,34.7695794 C1183.31496,33.809866 1182.16073,32.997813 1180.96926,32.333396 C1178.1395,30.9307379 1174.9747,30.0817734 1171.47474,29.786477 L1155.16652,29.786477 L1155.16652,71.2015942 L1170.35774,71.2015942 Z" id="path-1"></path>
    </defs>
    <g id="logo-with-text-orange" stroke="none" stroke-width="1" fill="none" fill-rule="evenodd">
        <g id="Group" transform="translate(264.000000, 34.000000)">
            <g id="Anlage.App-Logo-Text">
                <g id="color/white">
                    <g>
                        <mask id="mask-2" fill="white">
                            <use xlink:href="#path-1"></use>
                        </mask>
                        <use id="Mask" fill="#FFFFFF" xlink:href="#path-1"></use>
                        <g id="color/orange" mask="url(#mask-2)" fill="#E29B4A">
                            <g transform="translate(-204.527296, -728.516984)" id="color">
                                <rect x="0" y="0" width="1633" height="1619"></rect>
                            </g>
                        </g>
                    </g>
                </g>
            </g>
        </g>
        <g id="Logo-Outlined">
            <g id="Group">
                <polygon id="Combined-Shape" fill="#E9E9E9" fill-rule="nonzero" transform="translate(28.875000, 115.500000) scale(-1, 1) translate(-28.875000, -115.500000) " points="0 165.584071 0 42.1196581 57.75 0 57.75 231"></polygon>
                <polygon id="Combined-Shape" fill="#F2F2F2" fill-rule="nonzero" transform="translate(98.120891, 100.939831) scale(-1, 1) translate(-98.120891, -100.939831) " points="124.054281 149.230088 72.1875 90.4783362 124.054281 52.6495726 124.054281 149.230088"></polygon>
            </g>
            <g id="Group" transform="translate(36.093750, 0.000000)" fill="#E29B4A">
                <polygon id="Combined-Shape" fill-rule="nonzero" points="137.15625 231 137.15625 68.4444444 194.90625 0 194.90625 231"></polygon>
                <polygon id="Combined-Shape" fill-opacity="0.6" fill-rule="nonzero" points="122.71875 85.5555556 122.71875 231 64.96875 231 64.96875 154"></polygon>
                <polygon id="Combined-Shape" fill-opacity="0.2" fill-rule="nonzero" points="50.53125 171.111111 50.53125 231 0 231"></polygon>
            </g>
        </g>
    </g>
</svg>