<?xml version="1.0" encoding="UTF-8"?>
<svg width="519px" height="394px" viewBox="0 0 519 394" version="1.1" xmlns="http://www.w3.org/2000/svg" xmlns:xlink="http://www.w3.org/1999/xlink">
    <!-- Generator: Sketch 51.2 (57519) - http://www.bohemiancoding.com/sketch -->
    <title>chart-line-up</title>
    <desc>Created with Sketch.</desc>
    <defs></defs>
    <g id="chart-line-up" stroke="none" stroke-width="1" fill="none" fill-rule="evenodd">
        <g id="chart-line" transform="translate(-1.000000, -5.000000)" fill-rule="nonzero">
            <path id="Path-2" d="M456.852511,52.7631263 L329.61361,115.324771 C325.356391,117.417988 323.602121,122.566033 325.695338,126.823251 C326.283733,128.019938 327.142667,129.063198 328.204119,129.870409 L429.148995,206.636872 C432.925111,209.508529 438.314195,208.77532 441.185852,204.999205 C441.993064,203.937753 442.542056,202.702939 442.789353,201.392552 L469.083377,62.0644441 C469.963135,57.4027395 466.897261,52.9104968 462.235557,52.0307391 C460.409227,51.6860738 458.520374,51.9430607 456.852511,52.7631263 Z M376.637768,147.80494 L344.284872,190.347725 C336.554893,200.512342 322.760828,203.871508 311.222873,198.399067 C278.117035,182.696999 250.035483,179.02379 227.212057,188.658431 C204.000951,198.456727 188.580917,220.971907 180.395016,254.697819 L182.343696,250.245609 C165.968774,274.860189 138.983911,291.950603 100.647024,301.407445 C93.1400634,303.259242 88.5556476,310.846015 90.4074449,318.352976 C92.2592423,325.859937 99.8460148,330.444352 107.352976,328.592555 C152.089438,317.557082 185.104575,296.647496 205.656304,265.754391 C206.560458,264.395277 207.219953,262.888509 207.604984,261.302181 C213.886974,235.420382 224.238104,220.306437 238.101436,214.454195 C252.352447,208.438298 272.648606,211.093138 299.223752,223.697705 C322.726994,234.845271 350.826016,228.002526 366.572269,207.296823 L398.925165,164.754038 C403.605529,158.599543 402.41051,149.816155 396.256016,145.13579 C390.101521,140.455426 381.318132,141.650445 376.637768,147.80494 Z" fill="#008000"></path>
            <polyline id="Line" stroke="#BCBCBC" stroke-width="50" stroke-linecap="round" stroke-linejoin="round" points="26 30 26 374 495 374"></polyline>
        </g>
    </g>
</svg>