<?xml version="1.0" encoding="UTF-8"?>
<svg width="519px" height="394px" viewBox="0 0 519 394" version="1.1" xmlns="http://www.w3.org/2000/svg" xmlns:xlink="http://www.w3.org/1999/xlink">
    <!-- Generator: Sketch 51.2 (57519) - http://www.bohemiancoding.com/sketch -->
    <title>chart-line-down</title>
    <desc>Created with Sketch.</desc>
    <defs></defs>
    <g id="chart-line-down" stroke="none" stroke-width="1" fill="none" fill-rule="evenodd">
        <g id="chart-line" transform="translate(-1.000000, -5.000000)" fill-rule="nonzero">
            <path id="Path-2" d="M458.052392,322.802923 C459.82918,323.348173 461.734887,323.302429 463.483467,322.672556 C467.946717,321.064806 470.261558,316.143287 468.653807,311.680037 L420.601686,178.283294 C420.149754,177.028692 419.411924,175.896541 418.446628,174.976501 C415.012586,171.703456 409.575419,171.83397 406.302374,175.268012 L318.805828,267.068406 C317.885788,268.033702 317.203129,269.19995 316.811914,270.474791 C315.420164,275.010042 317.968474,279.814825 322.503725,281.206575 L458.052392,322.802923 Z M90.3824394,63.2499296 C98.3048631,96.4457523 111.972305,127.635556 131.343696,156.754391 C142.342428,173.287548 155.802905,188.886908 171.700203,203.552002 C190.746099,221.121645 220.298923,220.403224 238.468599,201.928879 L260.283356,179.748333 C270.623699,169.234603 287.486921,168.962124 298.161544,179.136291 L363.281417,241.20317 C368.878383,246.537735 377.74014,246.325018 383.074705,240.728052 C388.40927,235.131086 388.196552,226.269328 382.599586,220.934763 L317.479713,158.867884 C295.735113,138.142729 261.384105,138.697778 240.320441,160.114636 L218.505685,182.295182 C210.934986,189.992826 198.62131,190.292168 190.68552,182.971483 C176.390885,169.784829 164.389455,155.876361 154.656304,141.245609 C137.101044,114.856759 124.768486,86.7132295 117.617561,56.7500704 C115.822674,49.2292994 108.270842,44.5875528 100.75007,46.3824394 C93.2292994,48.1773259 88.5875528,55.7291585 90.3824394,63.2499296 Z" fill="#FF0000"></path>
            <polyline id="Line" stroke="#BCBCBC" stroke-width="50" stroke-linecap="round" stroke-linejoin="round" points="26 30 26 374 495 374"></polyline>
        </g>
    </g>
</svg>