<?xml version="1.0" encoding="UTF-8"?>
<svg width="1200px" height="300px" viewBox="0 0 1200 300" version="1.1" xmlns="http://www.w3.org/2000/svg" xmlns:xlink="http://www.w3.org/1999/xlink">
    <!-- Generator: Sketch 51.3 (57544) - http://www.bohemiancoding.com/sketch -->
    <title>anlage.app logo type white</title>
    <desc>Created with Sketch.</desc>
    <defs>
        <path d="M4.76577429,13.4332189 C5.3191628,14.3005043 6.0711868,15.0287495 6.95773645,15.5538447 C5.29973629,18.1602557 4.06274821,21.0606872 3.34251467,24.1593965 C2.81276743,24.0211016 2.25688464,23.9474836 1.68380744,23.9474836 C1.20549001,23.9474836 0.739150827,23.9987686 0.289988685,24.0961398 C1.10610347,20.2248552 2.6476489,16.6209317 4.76577312,13.4332211 Z M13.9075729,4.4568059 C17.1711651,2.37339795 20.8526024,0.88671352 24.7981087,0.150528866 C24.7309122,0.526743969 24.6958425,0.914090495 24.6958425,1.30962801 C24.6958425,1.95523214 24.7892733,2.57901431 24.9633515,3.16819096 C21.7346936,3.81825687 18.707975,5.02617697 15.9880674,6.68707936 C15.4788143,5.79025521 14.7639491,5.02546371 13.9075729,4.4568059 Z M0.289988685,36.8951075 C0.739150827,36.9924787 1.20549001,37.0437637 1.68380744,37.0437637 C2.25688464,37.0437637 2.81276743,36.9701457 3.34251467,36.8318508 C4.06274821,39.9305601 5.29973629,42.8309915 6.95773645,45.4374026 C6.07118678,45.9624978 5.31916277,46.690743 4.76577426,47.5580285 C2.64764833,44.3703142 1.10610331,40.7663913 0.289988685,36.8951075 Z M13.9075727,56.5344415 C14.763949,55.9657837 15.4788142,55.2009922 15.9880674,54.3041679 C18.6088854,55.9045616 21.5145667,57.0843772 24.6112888,57.7497921 C24.4230197,58.3604318 24.321663,59.009189 24.321663,59.6816193 C24.321663,60.0509939 24.3522469,60.4132253 24.4110204,60.7659193 C20.6117305,60.0064393 17.0642012,58.5495654 13.9075756,56.5344431 Z M37.3539279,60.60086 C37.3961238,60.3005044 37.4179431,59.9936099 37.4179431,59.6816193 C37.4179431,58.9504245 37.298097,58.2472212 37.0769765,57.5905813 C40.2481859,56.8230166 43.2076439,55.5131992 45.8516749,53.7648047 C46.2705954,54.6936545 46.8998425,55.5072424 47.6787176,56.1448699 C44.5872549,58.2200208 41.0999488,59.7510603 37.3539279,60.60086 Z M56.7426536,46.7529218 C56.078923,45.9982346 55.2442544,45.3975455 54.2991643,45.0113708 C55.8876558,42.4120563 57.0623512,39.5323107 57.7316563,36.4637283 C58.554451,36.8363211 59.4679892,37.0437637 60.4299781,37.0437637 C60.5104901,37.0437637 60.5906627,37.0423106 60.6704712,37.0394293 C59.9161855,40.5340851 58.5702246,43.8086044 56.7426536,46.7529218 Z M60.6704712,23.9518179 C60.5906627,23.9489366 60.5104901,23.9474836 60.4299781,23.9474836 C59.4679892,23.9474836 58.554451,24.1549262 57.7316563,24.5275189 C57.0623512,21.4589365 55.8876558,18.579191 54.2991643,15.9798765 C55.2442544,15.5937017 56.078923,14.9930126 56.7426536,14.2383255 C58.5702246,17.1826429 59.9161855,20.4571621 60.6704712,23.9518179 Z M47.6787176,4.84637734 C46.8998425,5.48400485 46.2705954,6.29759278 45.8516749,7.22644254 C43.3036584,5.54153869 40.4627076,4.26393758 37.4216087,3.48642546 C37.6615804,2.80539118 37.7921225,2.07275448 37.7921225,1.30962801 C37.7921225,1.02881702 37.7744465,0.75213451 37.7401462,0.480632418 C41.3397506,1.3463196 44.6937541,2.84271425 47.6787176,4.84637734 Z" id="path-1"></path>
        <path d="M70.1849862,38.1827802 C67.5649315,39.3859765 66.416849,40.6033108 66.416849,41.7427612 C66.416849,44.5194529 68.6773349,46.7724289 71.4682713,46.7724289 C74.2592078,46.7724289 76.5196937,44.5194529 76.5196937,41.7427612 C76.5196937,40.6033109 75.3716116,39.3859769 72.7515577,38.1827807 C72.2666194,37.9600846 71.8346424,37.6576855 71.4682706,37.2953034 C71.1018995,37.6576848 70.6699234,37.9600836 70.1849862,38.1827802 Z M72.7515565,11.5830842 C75.3716112,10.3798878 76.5196937,9.16255358 76.5196937,8.02310315 C76.5196937,5.24641141 74.2592078,2.99343545 71.4682713,2.99343545 C68.6773349,2.99343545 66.416849,5.24641141 66.416849,8.02310315 C66.416849,9.1625534 67.5649311,10.3798874 70.184985,11.5830836 C70.6699232,11.8057798 71.1019002,12.1081788 71.468272,12.4705609 C71.8346432,12.1081795 72.2666192,11.8057807 72.7515565,11.5830842 Z M68.9357502,14.3033903 C65.3688223,12.6653651 63.4234136,10.60261 63.4234136,8.02310315 C63.4234136,3.59094861 67.026332,0 71.4682713,0 C75.9102107,0 79.5131291,3.59094861 79.5131291,8.02310315 C79.5131291,10.6026103 77.5677198,12.6653657 74.0007932,14.3033899 C73.4693244,14.547455 73.1286926,15.0787149 73.1286926,15.6635443 L73.1286917,34.10232 C73.1286917,34.6871502 73.4693238,35.21841 74.0007925,35.4624741 C77.5677203,37.1004992 79.5131291,39.1632544 79.5131291,41.7427612 C79.5131291,46.1749157 75.9102107,49.7658643 71.4682713,49.7658643 C67.026332,49.7658643 63.4234136,46.1749157 63.4234136,41.7427612 C63.4234136,39.163254 65.3688228,37.1004987 68.9357494,35.4624744 C69.4672182,35.2184093 69.8078501,34.6871495 69.8078501,34.10232 L69.8078509,15.6635443 C69.8078509,15.0787142 69.4672189,14.5474544 68.9357502,14.3033903 Z M94.0972482,47.0244552 C91.3938015,46.022585 89.7211993,46.0715534 88.9154862,46.8772666 C86.9520686,48.8406841 86.9573789,52.0321836 88.930869,54.0056737 C90.9043591,55.9791638 94.0958586,55.9844741 96.0592761,54.0210565 C96.8649891,53.2153435 96.9139576,51.5427418 95.9120879,48.8392957 C95.7266548,48.3389226 95.6350293,47.8196403 95.6322082,47.3043335 C95.1169023,47.3015123 94.5976209,47.2098874 94.0972482,47.0244552 Z M114.720913,30.030469 C117.42436,31.0323392 119.096962,30.9833708 119.902675,30.1776577 C121.866093,28.2142401 121.860782,25.0227406 119.887292,23.0492505 C117.913802,21.0757605 114.722303,21.0704501 112.758885,23.0338677 C111.953172,23.8395807 111.904204,25.5121825 112.906073,28.2156286 C113.091506,28.7160016 113.183132,29.2352839 113.185953,29.7505907 C113.701259,29.7534119 114.22054,29.8450369 114.720913,30.030469 Z M110.099183,29.2558334 C108.735243,25.5753759 108.81822,22.741176 110.642207,20.9171892 C113.776213,17.7831827 118.863045,17.7916466 122.003971,20.932572 C125.144896,24.0734975 125.15336,29.1603296 122.019353,32.2943362 C120.195366,34.1183231 117.361166,34.2012994 113.68071,32.8373595 C113.132325,32.6341343 112.515804,32.7689287 112.102267,33.1824655 L99.0640834,46.2206483 C98.6505461,46.6341857 98.5157519,47.2507063 98.7189776,47.7990908 C100.082918,51.4795483 99.9999414,54.3137483 98.1759546,56.137735 C95.0419481,59.2717415 89.9551159,59.2632776 86.8141905,56.1223522 C83.6732651,52.9814268 83.6648011,47.8945946 86.7988077,44.7605881 C88.6227946,42.9366011 91.456995,42.8536248 95.1374511,44.2175648 C95.6858364,44.4207899 96.3023569,44.2859955 96.7158938,43.8724587 L109.754078,30.8342759 C110.167615,30.4207385 110.302409,29.8042179 110.099183,29.2558334 Z M104.753763,70.1849862 C103.550566,67.5649315 102.333232,66.416849 101.193781,66.416849 C98.4170897,66.416849 96.1641138,68.6773349 96.1641138,71.4682713 C96.1641138,74.2592078 98.4170897,76.5196937 101.193781,76.5196937 C102.333232,76.5196937 103.550566,75.3716116 104.753762,72.7515577 C104.976458,72.2666194 105.278857,71.8346424 105.641239,71.4682706 C105.278858,71.1018995 104.976459,70.6699234 104.753763,70.1849862 Z M131.353458,72.7515565 C132.556655,75.3716112 133.773989,76.5196937 134.91344,76.5196937 C137.690131,76.5196937 139.943107,74.2592078 139.943107,71.4682713 C139.943107,68.6773349 137.690131,66.416849 134.91344,66.416849 C133.773989,66.416849 132.556655,67.5649311 131.353459,70.184985 C131.130763,70.6699232 130.828364,71.1019002 130.465982,71.468272 C130.828363,71.8346432 131.130762,72.2666192 131.353458,72.7515565 Z M134.91344,63.4234136 C139.345594,63.4234136 142.936543,67.026332 142.936543,71.4682713 C142.936543,75.9102107 139.345594,79.5131291 134.91344,79.5131291 C132.333932,79.5131291 130.271177,77.5677198 128.633153,74.0007932 C128.389088,73.4693244 127.857828,73.1286926 127.272998,73.1286926 L108.834223,73.1286917 C108.249392,73.1286917 107.718133,73.4693238 107.474069,74.0007925 C105.836043,77.5677203 103.773288,79.5131291 101.193781,79.5131291 C96.7616269,79.5131291 93.1706783,75.9102107 93.1706783,71.4682713 C93.1706783,67.026332 96.7616269,63.4234136 101.193781,63.4234136 C103.773289,63.4234136 105.836044,65.3688228 107.474068,68.9357494 C107.718133,69.4672182 108.249393,69.8078501 108.834223,69.8078501 L127.272998,69.8078509 C127.857829,69.8078509 128.389088,69.4672189 128.633152,68.9357502 C130.271178,65.3688223 132.333933,63.4234136 134.91344,63.4234136 Z M95.9120875,94.0972482 C96.9139576,91.3938015 96.8649892,89.7211993 96.0592761,88.9154862 C94.0958586,86.9520686 90.9043591,86.9573789 88.930869,88.930869 C86.9573789,90.9043591 86.9520686,94.0958586 88.9154862,96.0592761 C89.7211992,96.8649891 91.3938009,96.9139576 94.097247,95.9120879 C94.5976201,95.7266548 95.1169023,95.6350293 95.6322092,95.6322082 C95.6350303,95.1169023 95.7266553,94.5976209 95.9120875,94.0972482 Z M112.906074,114.720913 C111.904203,117.42436 111.953172,119.096962 112.758885,119.902675 C114.722303,121.866093 117.913802,121.860782 119.887292,119.887292 C121.860782,117.913802 121.866093,114.722303 119.902675,112.758885 C119.096962,111.953172 117.42436,111.904204 114.720914,112.906073 C114.220541,113.091506 113.701259,113.183132 113.185952,113.185953 C113.183131,113.701259 113.091506,114.22054 112.906074,114.720913 Z M122.019353,110.642207 C125.15336,113.776213 125.144896,118.863045 122.003971,122.003971 C118.863045,125.144896 113.776213,125.15336 110.642207,122.019353 C108.81822,120.195366 108.735243,117.361166 110.099183,113.68071 C110.302408,113.132325 110.167614,112.515804 109.754077,112.102267 L96.7158944,99.0640834 C96.302357,98.6505461 95.6858364,98.5157519 95.1374518,98.7189776 C91.4569943,100.082918 88.6227944,99.9999414 86.7988077,98.1759546 C83.6648011,95.0419481 83.6732651,89.9551159 86.8141905,86.8141905 C89.9551159,83.6732651 95.0419481,83.6648011 98.1759546,86.7988077 C99.9999416,88.6227946 100.082918,91.456995 98.7189779,95.1374511 C98.5157528,95.6858364 98.6505471,96.3023569 99.064084,96.7158938 L112.102267,109.754078 C112.515804,110.167615 113.132325,110.302409 113.680709,110.099183 C117.361167,108.735243 120.195367,108.81822 122.019353,110.642207 Z M72.7515565,104.753763 C75.3716112,103.550566 76.5196937,102.333232 76.5196937,101.193781 C76.5196937,98.4170897 74.2592078,96.1641138 71.4682713,96.1641138 C68.6773349,96.1641138 66.416849,98.4170897 66.416849,101.193781 C66.416849,102.333232 67.5649311,103.550566 70.184985,104.753762 C70.6699232,104.976458 71.1019002,105.278857 71.468272,105.641239 C71.8346432,105.278858 72.2666192,104.976459 72.7515565,104.753763 Z M70.1849862,131.353458 C67.5649315,132.556655 66.416849,133.773989 66.416849,134.91344 C66.416849,137.690131 68.6773349,139.943107 71.4682713,139.943107 C74.2592078,139.943107 76.5196937,137.690131 76.5196937,134.91344 C76.5196937,133.773989 75.3716116,132.556655 72.7515577,131.353459 C72.2666194,131.130763 71.8346424,130.828364 71.4682706,130.465982 C71.1018995,130.828363 70.6699234,131.130762 70.1849862,131.353458 Z M74.0007925,128.633152 C77.5677203,130.271178 79.5131291,132.333933 79.5131291,134.91344 C79.5131291,139.345594 75.9102107,142.936543 71.4682713,142.936543 C67.026332,142.936543 63.4234136,139.345594 63.4234136,134.91344 C63.4234136,132.333932 65.3688228,130.271177 68.9357494,128.633153 C69.4672182,128.389088 69.8078501,127.857828 69.8078501,127.272998 L69.8078509,108.834223 C69.8078509,108.249392 69.4672189,107.718133 68.9357502,107.474069 C65.3688223,105.836043 63.4234136,103.773288 63.4234136,101.193781 C63.4234136,96.7616269 67.026332,93.1706783 71.4682713,93.1706783 C75.9102107,93.1706783 79.5131291,96.7616269 79.5131291,101.193781 C79.5131291,103.773289 77.5677198,105.836044 74.0007932,107.474068 C73.4693244,107.718133 73.1286926,108.249393 73.1286926,108.834223 L73.1286917,127.272998 C73.1286917,127.857829 73.4693238,128.389088 74.0007925,128.633152 Z M48.8392944,95.9120875 C51.5427412,96.9139576 53.2153434,96.8649892 54.0210565,96.0592761 C55.9844741,94.0958586 55.9791638,90.9043591 54.0056737,88.930869 C52.0321836,86.9573789 48.8406841,86.9520686 46.8772666,88.9154862 C46.0715536,89.7211992 46.022585,91.3938009 47.0244547,94.097247 C47.2098879,94.5976201 47.3015133,95.1169023 47.3043345,95.6322092 C47.8196403,95.6350303 48.3389218,95.7266553 48.8392944,95.9120875 Z M28.2156298,112.906074 C25.512183,111.904203 23.8395808,111.953172 23.0338677,112.758885 C21.0704501,114.722303 21.0757605,117.913802 23.0492505,119.887292 C25.0227406,121.860782 28.2142401,121.866093 30.1776577,119.902675 C30.9833707,119.096962 31.0323392,117.42436 30.0304695,114.720914 C29.8450363,114.220541 29.7534109,113.701259 29.7505897,113.185952 C29.2352839,113.183131 28.7160024,113.091506 28.2156298,112.906074 Z M32.2943362,122.019353 C29.1603296,125.15336 24.0734975,125.144896 20.932572,122.003971 C17.7916466,118.863045 17.7831827,113.776213 20.9171892,110.642207 C22.7411762,108.81822 25.5753766,108.735243 29.2558326,110.099183 C29.8042179,110.302408 30.4207385,110.167614 30.8342753,109.754077 L43.8724593,96.7158944 C44.2859966,96.302357 44.4207908,95.6858364 44.217565,95.1374518 C42.8536249,91.4569943 42.9366013,88.6227944 44.7605881,86.7988077 C47.8945946,83.6648011 52.9814268,83.6732651 56.1223522,86.8141905 C59.2632776,89.9551159 59.2717415,95.0419481 56.137735,98.1759546 C54.313748,99.9999416 51.4795476,100.082918 47.7990916,98.7189779 C47.2507063,98.5157528 46.6341857,98.6505471 46.2206489,99.064084 L33.182465,112.102267 C32.7689276,112.515804 32.6341334,113.132325 32.8373592,113.680709 C34.2012994,117.361167 34.1183229,120.195367 32.2943362,122.019353 Z M38.1827802,72.7515565 C39.3859765,75.3716112 40.6033108,76.5196937 41.7427612,76.5196937 C44.5194529,76.5196937 46.7724289,74.2592078 46.7724289,71.4682713 C46.7724289,68.6773349 44.5194529,66.416849 41.7427612,66.416849 C40.6033109,66.416849 39.3859769,67.5649311 38.1827807,70.184985 C37.9600846,70.6699232 37.6576855,71.1019002 37.2953034,71.468272 C37.6576848,71.8346432 37.9600836,72.2666192 38.1827802,72.7515565 Z M11.5830842,70.1849862 C10.3798878,67.5649315 9.16255358,66.416849 8.02310315,66.416849 C5.24641141,66.416849 2.99343545,68.6773349 2.99343545,71.4682713 C2.99343545,74.2592078 5.24641141,76.5196937 8.02310315,76.5196937 C9.1625534,76.5196937 10.3798874,75.3716116 11.5830836,72.7515577 C11.8057798,72.2666194 12.1081788,71.8346424 12.4705609,71.4682706 C12.1081795,71.1018995 11.8057807,70.6699234 11.5830842,70.1849862 Z M14.3033903,74.0007925 C12.6653651,77.5677203 10.60261,79.5131291 8.02310315,79.5131291 C3.59094861,79.5131291 0,75.9102107 0,71.4682713 C0,67.026332 3.59094861,63.4234136 8.02310315,63.4234136 C10.6026103,63.4234136 12.6653657,65.3688228 14.3033899,68.9357494 C14.547455,69.4672182 15.0787149,69.8078501 15.6635443,69.8078501 L34.10232,69.8078509 C34.6871502,69.8078509 35.21841,69.4672189 35.4624741,68.9357502 C37.1004992,65.3688223 39.1632544,63.4234136 41.7427612,63.4234136 C46.1749157,63.4234136 49.7658643,67.026332 49.7658643,71.4682713 C49.7658643,75.9102107 46.1749157,79.5131291 41.7427612,79.5131291 C39.163254,79.5131291 37.1004987,77.5677198 35.4624744,74.0007932 C35.2184093,73.4693244 34.6871495,73.1286926 34.10232,73.1286926 L15.6635443,73.1286917 C15.0787142,73.1286917 14.5474544,73.4693238 14.3033903,74.0007925 Z M47.0244552,48.8392944 C46.022585,51.5427412 46.0715534,53.2153434 46.8772666,54.0210565 C48.8406841,55.9844741 52.0321836,55.9791638 54.0056737,54.0056737 C55.9791638,52.0321836 55.9844741,48.8406841 54.0210565,46.8772666 C53.2153435,46.0715536 51.5427418,46.022585 48.8392957,47.0244547 C48.3389226,47.2098879 47.8196403,47.3015133 47.3043335,47.3043345 C47.3015123,47.8196403 47.2098874,48.3389218 47.0244552,48.8392944 Z M30.030469,28.2156298 C31.0323392,25.512183 30.9833708,23.8395808 30.1776577,23.0338677 C28.2142401,21.0704501 25.0227406,21.0757605 23.0492505,23.0492505 C21.0757605,25.0227406 21.0704501,28.2142401 23.0338677,30.1776577 C23.8395807,30.9833707 25.5121825,31.0323392 28.2156286,30.0304695 C28.7160016,29.8450363 29.2352839,29.7534109 29.7505907,29.7505897 C29.7534119,29.2352839 29.8450369,28.7160024 30.030469,28.2156298 Z M20.9171892,32.2943362 C17.7831827,29.1603296 17.7916466,24.0734975 20.932572,20.932572 C24.0734975,17.7916466 29.1603296,17.7831827 32.2943362,20.9171892 C34.1183231,22.7411762 34.2012994,25.5753766 32.8373595,29.2558326 C32.6341343,29.8042179 32.7689287,30.4207385 33.1824655,30.8342753 L46.2206483,43.8724593 C46.6341857,44.2859966 47.2507063,44.4207908 47.7990908,44.217565 C51.4795483,42.8536249 54.3137483,42.9366013 56.137735,44.7605881 C59.2717415,47.8945946 59.2632776,52.9814268 56.1223522,56.1223522 C52.9814268,59.2632776 47.8945946,59.2717415 44.7605881,56.137735 C42.9366011,54.313748 42.8536248,51.4795476 44.2175648,47.7990916 C44.4207899,47.2507063 44.2859955,46.6341857 43.8724587,46.2206489 L30.8342759,33.182465 C30.4207385,32.7689276 29.8042179,32.6341334 29.2558334,32.8373592 C25.5753759,34.2012994 22.741176,34.1183229 20.9171892,32.2943362 Z" id="path-3"></path>
        <path d="M105.13728,36.3622665 C102.252411,36.4460044 100.718192,37.1186283 100.272421,38.168799 C99.1865213,40.7270178 100.388063,43.6867483 102.959401,44.7782168 C105.53074,45.8696853 108.494452,44.6780001 109.580352,42.1197813 C110.026123,41.0696106 109.44421,39.4987418 107.500447,37.3653711 C107.140957,36.9708137 106.8614,36.5235514 106.665713,36.0466949 C106.186755,36.2371824 105.670825,36.3467802 105.13728,36.3622665 Z M117.899789,12.866057 C120.784659,12.7823191 122.318878,12.1096952 122.764649,11.0595246 C123.850548,8.50130578 122.649007,5.54157525 120.077668,4.45010675 C117.50633,3.35863825 114.542617,4.55032345 113.456718,7.10854224 C113.010947,8.15871293 113.59286,9.72958171 115.536623,11.8629525 C115.896113,12.2575099 116.17567,12.7047721 116.371356,13.1816286 C116.850314,12.9911411 117.366245,12.8815433 117.899789,12.866057 Z M110.701246,5.93891383 C112.433986,1.85683349 117.156202,-0.0419318354 121.247297,1.69463489 C125.338392,3.43120161 127.252861,8.14707264 125.52012,12.229153 C124.511627,14.6050149 121.913067,15.7442615 117.98664,15.8582322 C117.402027,15.8752009 116.880854,16.2311384 116.652331,16.7695049 L109.441797,33.7564644 C109.213274,34.29483 109.319271,34.9169849 109.71317,35.349308 C112.358711,38.2529125 113.344317,40.9135477 112.335824,43.2894097 C110.603083,47.37149 105.880868,49.2702554 101.789773,47.5336886 C97.6986779,45.7971219 95.7842086,41.0812509 97.5169489,36.9991706 C98.5254425,34.6233086 101.124003,33.484062 105.050429,33.3700913 C105.635042,33.3531227 106.156215,32.9971851 106.384738,32.4588186 L113.595273,15.4718591 C113.823795,14.9334935 113.717798,14.3113387 113.323899,13.8790155 C110.678358,10.9754111 109.692752,8.31477588 110.701246,5.93891383 Z M134.131279,64.6400295 C132.032156,62.6593304 130.471683,62.0500906 129.413892,62.4774657 C126.837111,63.5185527 125.593884,66.4610161 126.64031,69.0510119 C127.686736,71.6410077 130.625046,72.8940203 133.201827,71.8529333 C134.259617,71.4255582 134.958915,69.9033116 135.092988,67.0203427 C135.117784,66.4871505 135.236369,65.9732116 135.435187,65.4976519 C134.961817,65.2936726 134.519502,65.0063517 134.131279,64.6400295 Z M159.770064,57.050157 C161.869187,59.0308561 163.42966,59.6400959 164.487451,59.2127208 C167.064231,58.1716338 168.307459,55.2291703 167.261033,52.6391746 C166.214607,50.0491788 163.276297,48.7961662 160.699516,49.8372532 C159.641725,50.2646283 158.942428,51.7868749 158.808355,54.6698438 C158.783559,55.203036 158.664973,55.7169749 158.466156,56.1925346 C158.939525,56.3965139 159.381841,56.6838347 159.770064,57.050157 Z M159.578155,47.0617882 C163.689854,45.4005539 168.371595,47.3970349 170.036498,51.5178139 C171.701401,55.6385929 169.72051,60.3269515 165.608811,61.9881858 C163.215711,62.9550613 160.572682,61.9231706 157.71569,59.2273573 C157.290307,58.8259721 156.670096,58.7091329 156.127824,58.9282253 L139.017612,65.8412019 C138.47534,66.0602939 138.110361,66.575175 138.083191,67.1594026 C137.900713,71.0832407 136.716288,73.6615228 134.323188,74.6283983 C130.211488,76.2896326 125.529748,74.2931516 123.864845,70.1723726 C122.199942,66.0515936 124.180832,61.363235 128.292531,59.7020007 C130.685632,58.7351252 133.328661,59.7670158 136.185653,62.4628292 C136.611036,62.8642144 137.231246,62.9810536 137.773519,62.7619611 L154.883731,55.8489846 C155.426003,55.6298925 155.790982,55.1150115 155.818151,54.5307838 C156.00063,50.6069458 157.185054,48.0286637 159.578155,47.0617882 Z M134.637733,105.13728 C134.553996,102.252411 133.881372,100.718192 132.831201,100.272421 C130.272982,99.1865213 127.313252,100.388063 126.221783,102.959401 C125.130315,105.53074 126.322,108.494452 128.880219,109.580352 C129.930389,110.026123 131.501258,109.44421 133.634629,107.500447 C134.029186,107.140957 134.476449,106.8614 134.953305,106.665713 C134.762818,106.186755 134.65322,105.670825 134.637733,105.13728 Z M158.133943,117.899789 C158.217681,120.784659 158.890305,122.318878 159.940475,122.764649 C162.498694,123.850548 165.458425,122.649007 166.549893,120.077668 C167.641362,117.50633 166.449677,114.542617 163.891458,113.456718 C162.841287,113.010947 161.270418,113.59286 159.137048,115.536623 C158.74249,115.896113 158.295228,116.17567 157.818371,116.371356 C158.008859,116.850314 158.118457,117.366245 158.133943,117.899789 Z M165.061086,110.701246 C169.143167,112.433986 171.041932,117.156202 169.305365,121.247297 C167.568798,125.338392 162.852927,127.252861 158.770847,125.52012 C156.394985,124.511627 155.255738,121.913067 155.141768,117.98664 C155.124799,117.402027 154.768862,116.880854 154.230495,116.652331 L137.243536,109.441797 C136.70517,109.213274 136.083015,109.319271 135.650692,109.71317 C132.747088,112.358711 130.086452,113.344317 127.71059,112.335824 C123.62851,110.603083 121.729745,105.880868 123.466311,101.789773 C125.202878,97.6986779 129.918749,95.7842086 134.000829,97.5169489 C136.376691,98.5254425 137.515938,101.124003 137.629909,105.050429 C137.646877,105.635042 138.002815,106.156215 138.541181,106.384738 L155.528141,113.595273 C156.066506,113.823795 156.688661,113.717798 157.120984,113.323899 C160.024589,110.678358 162.685224,109.692752 165.061086,110.701246 Z M106.359971,134.131279 C108.34067,132.032156 108.949909,130.471683 108.522534,129.413892 C107.481447,126.837111 104.538984,125.593884 101.948988,126.64031 C99.3589923,127.686736 98.1059797,130.625046 99.1470667,133.201827 C99.5744418,134.259617 101.096688,134.958915 103.979657,135.092988 C104.51285,135.117784 105.026788,135.236369 105.502348,135.435187 C105.706327,134.961817 105.993648,134.519502 106.359971,134.131279 Z M113.949843,159.770064 C111.969144,161.869187 111.359904,163.42966 111.787279,164.487451 C112.828366,167.064231 115.77083,168.307459 118.360825,167.261033 C120.950821,166.214607 122.203834,163.276297 121.162747,160.699516 C120.735372,159.641725 119.213125,158.942428 116.330156,158.808355 C115.796964,158.783559 115.283025,158.664973 114.807465,158.466156 C114.603486,158.939525 114.316165,159.381841 113.949843,159.770064 Z M116.469216,155.818151 C120.393054,156.00063 122.971336,157.185054 123.938212,159.578155 C125.599446,163.689854 123.602965,168.371595 119.482186,170.036498 C115.361407,171.701401 110.673048,169.72051 109.011814,165.608811 C108.044939,163.215711 109.076829,160.572682 111.772643,157.71569 C112.174028,157.290307 112.290867,156.670096 112.071775,156.127824 L105.158798,139.017612 C104.939706,138.47534 104.424825,138.110361 103.840597,138.083191 C99.9167593,137.900713 97.3384772,136.716288 96.3716017,134.323188 C94.7103674,130.211488 96.7068484,125.529748 100.827627,123.864845 C104.948406,122.199942 109.636765,124.180832 111.297999,128.292531 C112.264875,130.685632 111.232984,133.328661 108.537171,136.185653 C108.135786,136.611036 108.018946,137.231246 108.238039,137.773519 L115.151015,154.883731 C115.370107,155.426003 115.884989,155.790982 116.469216,155.818151 Z M65.8627198,134.637733 C68.7475892,134.553996 70.2818082,133.881372 70.7275792,132.831201 C71.8134787,130.272982 70.6119375,127.313252 68.0405988,126.221783 C65.4692602,125.130315 62.5055476,126.322 61.4196481,128.880219 C60.9738771,129.930389 61.5557901,131.501258 63.4995531,133.634629 C63.8590434,134.029186 64.1386004,134.476449 64.3342869,134.953305 C64.8132446,134.762818 65.3291755,134.65322 65.8627198,134.637733 Z M53.1002108,158.133943 C50.2153414,158.217681 48.6811223,158.890305 48.2353514,159.940475 C47.1494519,162.498694 48.3509931,165.458425 50.9223317,166.549893 C53.4936704,167.641362 56.457383,166.449677 57.5432824,163.891458 C57.9890534,162.841287 57.4071404,161.270418 55.4633775,159.137048 C55.1038872,158.74249 54.8243302,158.295228 54.6286437,157.818371 C54.1496859,158.008859 53.6337551,158.118457 53.1002108,158.133943 Z M60.2987543,165.061086 C58.566014,169.143167 53.8437981,171.041932 49.7527033,169.305365 C45.6616085,167.568798 43.7471392,162.852927 45.4798795,158.770847 C46.4883731,156.394985 49.0869334,155.255738 53.0133599,155.141768 C53.597973,155.124799 54.119146,154.768862 54.347669,154.230495 L61.5582033,137.243536 C61.786726,136.70517 61.680729,136.083015 61.2868295,135.650692 C58.641289,132.747088 57.6556827,130.086452 58.6641763,127.71059 C60.3969166,123.62851 65.1191324,121.729745 69.2102272,123.466311 C73.3013221,125.202878 75.2157914,129.918749 73.4830511,134.000829 C72.4745575,136.376691 69.8759972,137.515938 65.9495706,137.629909 C65.3649576,137.646877 64.8437846,138.002815 64.6152616,138.541181 L57.4047272,155.528141 C57.1762046,156.066506 57.2822015,156.688661 57.676101,157.120984 C60.3216415,160.024589 61.3072479,162.685224 60.2987543,165.061086 Z M36.8687215,106.359971 C38.9678438,108.34067 40.5283174,108.949909 41.5861079,108.522534 C44.1628886,107.481447 45.4061162,104.538984 44.35969,101.948988 C43.3132638,99.3589923 40.3749538,98.1059797 37.7981731,99.1470667 C36.7403826,99.5744418 36.0410852,101.096688 35.9070123,103.979657 C35.8822161,104.51285 35.7636306,105.026788 35.5648133,105.502348 C36.0381826,105.706327 36.4804982,105.993648 36.8687215,106.359971 Z M11.2299357,113.949843 C9.13081337,111.969144 7.57033974,111.359904 6.51254928,111.787279 C3.93576856,112.828366 2.69254094,115.77083 3.73896716,118.360825 C4.78539337,120.950821 7.72370334,122.203834 10.3004841,121.162747 C11.3582746,120.735372 12.0575719,119.213125 12.1916449,116.330156 C12.2164411,115.796964 12.3350266,115.283025 12.5338438,114.807465 C12.0604745,114.603486 11.618159,114.316165 11.2299357,113.949843 Z M15.1818486,116.469216 C14.9993698,120.393054 13.8149456,122.971336 11.4218447,123.938212 C7.31014561,125.599446 2.62840493,123.602965 0.96350214,119.482186 C-0.701400646,115.361407 1.27948952,110.673048 5.39118863,109.011814 C7.78428936,108.044939 10.427318,109.076829 13.2843103,111.772643 C13.7096927,112.174028 14.3299036,112.290867 14.8721764,112.071775 L31.9823883,105.158798 C32.5246602,104.939706 32.889639,104.424825 32.9168086,103.840597 C33.0992874,99.9167593 34.2837116,97.3384772 36.6768124,96.3716017 C40.7885115,94.7103674 45.4702522,96.7068484 47.135155,100.827627 C48.8000578,104.948406 46.8191676,109.636765 42.7074685,111.297999 C40.3143678,112.264875 37.6713392,111.232984 34.8143469,108.537171 C34.3889644,108.135786 33.7687536,108.018946 33.2264808,108.238039 L16.1162688,115.151015 C15.573997,115.370107 15.2090182,115.884989 15.1818486,116.469216 Z M36.3622665,65.8627198 C36.4460044,68.7475892 37.1186283,70.2818082 38.168799,70.7275792 C40.7270178,71.8134787 43.6867483,70.6119375 44.7782168,68.0405988 C45.8696853,65.4692602 44.6780001,62.5055476 42.1197813,61.4196481 C41.0696106,60.9738771 39.4987418,61.5557901 37.3653711,63.4995531 C36.9708137,63.8590434 36.5235514,64.1386004 36.0466949,64.3342869 C36.2371824,64.8132446 36.3467802,65.3291755 36.3622665,65.8627198 Z M12.866057,53.1002108 C12.7823191,50.2153414 12.1096952,48.6811223 11.0595246,48.2353514 C8.50130578,47.1494519 5.54157525,48.3509931 4.45010675,50.9223317 C3.35863825,53.4936704 4.55032345,56.457383 7.10854224,57.5432824 C8.15871293,57.9890534 9.72958171,57.4071404 11.8629525,55.4633775 C12.2575099,55.1038872 12.7047721,54.8243302 13.1816286,54.6286437 C12.9911411,54.1496859 12.8815433,53.6337551 12.866057,53.1002108 Z M13.8790155,57.676101 C10.9754111,60.3216415 8.31477588,61.3072479 5.93891383,60.2987543 C1.85683349,58.566014 -0.0419318354,53.8437981 1.69463489,49.7527033 C3.43120161,45.6616085 8.14707264,43.7471392 12.229153,45.4798795 C14.6050149,46.4883731 15.7442615,49.0869334 15.8582322,53.0133599 C15.8752009,53.597973 16.2311384,54.119146 16.7695049,54.347669 L33.7564644,61.5582033 C34.29483,61.786726 34.9169849,61.680729 35.349308,61.2868295 C38.2529125,58.641289 40.9135477,57.6556827 43.2894097,58.6641763 C47.37149,60.3969166 49.2702554,65.1191324 47.5336886,69.2102272 C45.7971219,73.3013221 41.0812509,75.2157914 36.9991706,73.4830511 C34.6233086,72.4745575 33.484062,69.8759972 33.3700913,65.9495706 C33.3531227,65.3649576 32.9971851,64.8437846 32.4588186,64.6152616 L15.4718591,57.4047272 C14.9334935,57.1762046 14.3113387,57.2822015 13.8790155,57.676101 Z M64.6400295,36.8687215 C62.6593304,38.9678438 62.0500906,40.5283174 62.4774657,41.5861079 C63.5185527,44.1628886 66.4610161,45.4061162 69.0510119,44.35969 C71.6410077,43.3132638 72.8940203,40.3749538 71.8529333,37.7981731 C71.4255582,36.7403826 69.9033116,36.0410852 67.0203427,35.9070123 C66.4871505,35.8822161 65.9732116,35.7636306 65.4976519,35.5648133 C65.2936726,36.0381826 65.0063517,36.4804982 64.6400295,36.8687215 Z M57.050157,11.2299357 C59.0308561,9.13081337 59.6400959,7.57033974 59.2127208,6.51254928 C58.1716338,3.93576856 55.2291703,2.69254094 52.6391746,3.73896716 C50.0491788,4.78539337 48.7961662,7.72370334 49.8372532,10.3004841 C50.2646283,11.3582746 51.7868749,12.0575719 54.6698438,12.1916449 C55.203036,12.2164411 55.7169749,12.3350266 56.1925346,12.5338438 C56.3965139,12.0604745 56.6838347,11.618159 57.050157,11.2299357 Z M47.0617882,11.4218447 C45.4005539,7.31014561 47.3970349,2.62840493 51.5178139,0.96350214 C55.6385929,-0.701400646 60.3269515,1.27948952 61.9881858,5.39118863 C62.9550613,7.78428936 61.9231706,10.427318 59.2273573,13.2843103 C58.8259721,13.7096927 58.7091329,14.3299036 58.9282253,14.8721764 L65.8412019,31.9823883 C66.0602939,32.5246602 66.575175,32.889639 67.1594026,32.9168086 C71.0832407,33.0992874 73.6615228,34.2837116 74.6283983,36.6768124 C76.2896326,40.7885115 74.2931516,45.4702522 70.1723726,47.135155 C66.0515936,48.8000578 61.363235,46.8191676 59.7020007,42.7074685 C58.7351252,40.3143678 59.7670158,37.6713392 62.4628292,34.8143469 C62.8642144,34.3889644 62.9810536,33.7687536 62.7619611,33.2264808 L55.8489846,16.1162688 C55.6298925,15.573997 55.1150115,15.2090182 54.5307838,15.1818486 C50.6069458,14.9993698 48.0286637,13.8149456 47.0617882,11.4218447 Z" id="path-5"></path>
        <path d="M108.383382,113.97962 L91.6460735,113.97962 C89.9892192,113.97962 88.6460735,112.636474 88.6460735,110.97962 L88.6460735,89.6256992 C88.6460735,87.968845 87.3029277,86.6256992 85.6460735,86.6256992 L25.7373084,86.6256992 C24.0804542,86.6256992 22.7373084,87.968845 22.7373084,89.6256992 L22.7373084,110.97962 C22.7373084,112.636474 21.3941627,113.97962 19.7373084,113.97962 L3,113.97962 C1.34314575,113.97962 -1.87822536e-15,112.636474 -3.55271368e-15,110.97962 L1.12899648e-14,58.2615489 C1.12899648e-14,50.1278615 1.39810378,42.6418729 4.19435329,35.8033587 C6.9906028,28.9648444 10.8742244,23.0848464 15.8453347,18.1631884 C20.8164449,13.2415304 26.693659,9.4078754 33.4771531,6.66210831 C40.2606473,3.91634121 47.6654192,2.54347826 55.691691,2.54347826 L101.208192,2.54347826 C102.606316,2.54347826 103.926748,2.80250901 105.169525,3.32057827 C106.412303,3.83864753 107.499717,4.56393362 108.4318,5.4964583 C109.363883,6.42898297 110.088826,7.5169121 110.60665,8.76027833 C111.124474,10.0036446 111.383382,11.3247014 111.383382,12.7234884 L111.383382,110.97962 C111.383382,112.636474 110.040236,113.97962 108.383382,113.97962 Z M25.1448339,65.1109083 L86.2385481,65.1109083 C87.7959911,65.1109083 89.0585481,63.8483513 89.0585481,62.2909083 L89.0585481,26.8782692 C89.0585481,25.3208262 87.7959911,24.0582692 86.2385481,24.0582692 L55.691691,24.0582692 C55.1075855,24.0582692 53.8785487,24.1434903 52.0045437,24.3139351 C50.1305387,24.4843799 47.9645135,24.9104854 45.5064031,25.5922646 C43.0482926,26.2740437 40.4563636,27.321046 37.7305381,28.7333028 C35.0047127,30.1455596 32.4979644,32.0934708 30.210218,34.5770949 C27.9224717,37.0607189 26.0363261,40.1652024 24.5517248,43.8906384 C23.0671234,47.6160745 22.3248339,52.1327936 22.3248339,57.4409313 L22.3248339,62.2909083 C22.3248339,63.8483513 23.5873909,65.1109083 25.1448339,65.1109083 Z M194.937877,80.9942784 L196.844616,80.9942784 L196.844616,15.0216719 C196.844616,13.325982 196.950544,11.7230492 197.162405,10.2128253 C197.374266,8.70260147 197.837705,7.39111096 198.552735,6.27831445 C199.267766,5.16551793 200.327054,4.27794355 201.730633,3.61556467 C203.134211,2.95318579 205.054172,2.62200132 207.490572,2.62200132 C210.191798,2.62200132 212.323616,2.95318579 213.886091,3.61556467 C215.448565,4.27794355 216.627023,5.16551793 217.421501,6.27831445 C218.21598,7.39111096 218.719142,8.70260147 218.931003,10.2128253 C219.142864,11.7230492 219.248792,13.325982 219.248792,15.0216719 L219.248792,95.6195309 C219.248792,97.9511045 219.182587,100.203159 219.050174,102.375762 C218.917761,104.548364 218.494045,106.495729 217.779015,108.217914 C217.063984,109.940099 215.898767,111.317827 214.283328,112.351138 C212.667888,113.384449 210.403659,113.901097 207.490572,113.901097 L197.00351,113.901097 C194.514145,113.901097 192.435291,113.410943 190.766887,112.430623 C189.098482,111.450302 187.708166,110.258038 186.595896,108.853795 C185.483627,107.449551 184.596472,105.979092 183.934407,104.442373 C183.272342,102.905654 182.755939,101.607411 182.385182,100.547605 L158.392057,35.5288195 L156.485318,35.5288195 L156.485318,101.501426 C156.485318,103.197116 156.379389,104.800049 156.167528,106.310273 C155.955667,107.820496 155.492229,109.131987 154.777198,110.244783 C154.062168,111.35758 153.002879,112.245154 151.599301,112.907533 C150.195722,113.569912 148.275762,113.901097 145.839362,113.901097 C143.08517,113.901097 140.913629,113.569912 139.324672,112.907533 C137.735715,112.245154 136.544016,111.35758 135.749537,110.244783 C134.955059,109.131987 134.451897,107.820496 134.240036,106.310273 C134.028175,104.800049 133.922246,103.197116 133.922246,101.501426 L133.922246,20.903567 C133.922246,18.6249836 133.988452,16.3861766 134.120865,14.1870787 C134.253278,11.9879808 134.690235,10.0273688 135.431748,8.30518368 C136.173261,6.5829986 137.351719,5.2052712 138.967159,4.17196015 C140.582598,3.1386491 142.873309,2.62200132 145.839362,2.62200132 L156.326423,2.62200132 C158.974684,2.62200132 161.132985,3.1386491 162.801389,4.17196015 C164.469794,5.2052712 165.833628,6.3312984 166.892932,7.55007554 C168.058167,8.98081391 168.985045,10.6234889 169.673592,12.4781498 L194.937877,80.9942784 Z M244.354182,20.903567 C244.354182,18.6249836 244.460111,16.399424 244.671972,14.2268212 C244.883833,12.0542185 245.400236,10.1068538 246.221197,8.38466875 C247.042158,6.66248366 248.247099,5.27150889 249.836055,4.21170268 C251.425012,3.15189647 253.623036,2.62200132 256.430192,2.62200132 C259.44921,2.62200132 261.806127,3.15189647 263.501014,4.21170268 C265.195901,5.27150889 266.440565,6.66248366 267.235044,8.38466875 C268.029522,10.1068538 268.519443,12.0542185 268.704821,14.2268212 C268.8902,16.399424 268.982887,18.6249836 268.982887,20.903567 L268.982887,90.5324865 L284.554585,90.5324865 C286.726159,90.5324865 288.871218,90.6384655 290.989827,90.8504268 C293.108436,91.062388 295.001914,91.5657884 296.670319,92.3606431 C298.338723,93.1554977 299.676075,94.3212671 300.682414,95.8579861 C301.688753,97.3947051 302.191915,99.4877909 302.191915,102.137306 C302.191915,104.839812 301.688753,106.97264 300.682414,108.535854 C299.676075,110.099069 298.338723,111.278085 296.670319,112.07294 C295.001914,112.867795 293.108436,113.371195 290.989827,113.583156 C288.871218,113.795117 286.726159,113.901097 284.554585,113.901097 L261.991513,113.901097 C259.184356,113.901097 256.695028,113.795117 254.523454,113.583156 C252.35188,113.371195 250.511366,112.867795 249.001857,112.07294 C247.492348,111.278085 246.340372,110.099069 245.545894,108.535854 C244.751415,106.97264 244.354182,104.839812 244.354182,102.137306 L244.354182,20.903567 Z M338.419946,65.8921154 L363.684231,65.8921154 L351.92601,23.288119 L350.178167,23.288119 L338.419946,65.8921154 Z M388.312936,73.6816521 C388.418866,77.2849932 388.551277,80.9677645 388.710173,84.7300766 C388.869069,88.4923886 388.948515,92.1221704 388.948515,95.6195309 L388.948515,98.0040829 C388.948515,100.017715 388.88231,101.965079 388.749897,103.846235 C388.617484,105.727391 388.207009,107.423056 387.518462,108.93328 C386.829914,110.443504 385.744143,111.649015 384.261117,112.54985 C382.77809,113.450686 380.685996,113.901097 377.984769,113.901097 C375.230578,113.901097 373.112001,113.450686 371.628974,112.54985 C370.145948,111.649015 369.046936,110.456751 368.331906,108.973022 C367.616875,107.489294 367.19316,105.793629 367.060747,103.885978 C366.928334,101.978327 366.862128,100.017715 366.862128,98.0040829 L366.862128,86.8761734 L335.083154,86.8761734 L335.083154,98.0040829 C335.083154,100.017715 335.016948,101.978327 334.884535,103.885978 C334.752122,105.793629 334.328407,107.489294 333.613376,108.973022 C332.898346,110.456751 331.799334,111.649015 330.316308,112.54985 C328.833281,113.450686 326.714704,113.901097 323.960513,113.901097 C321.206321,113.901097 319.087744,113.450686 317.604718,112.54985 C316.121692,111.649015 315.035921,110.443504 314.347373,108.93328 C313.658825,107.423056 313.261592,105.727391 313.155662,103.846235 C313.049731,101.965079 312.996767,100.017715 312.996767,98.0040829 L312.996767,95.6195309 C312.996767,93.9768313 313.010008,92.2281772 313.03649,90.3735164 C313.062973,88.5188555 313.102696,86.6377277 313.155662,84.7300766 C313.208627,82.8224254 313.261591,80.9280502 313.314556,79.0468942 C313.367522,77.1657382 313.420486,75.377342 313.473451,73.6816521 C316.121712,64.4613381 318.902345,55.121936 321.815432,45.6631656 C324.728519,36.2043953 327.509152,26.8384984 330.157413,17.5651941 C330.687065,15.6045526 331.322638,13.7101774 332.064151,11.8820117 C332.805664,10.053846 333.785506,8.46416057 335.003706,7.11290766 C336.221907,5.76165475 337.784357,4.67536968 339.691105,3.85401987 C341.597853,3.03267006 344.034217,2.62200132 347.000269,2.62200132 L354.945013,2.62200132 C357.8581,2.62200132 360.281223,3.03267006 362.214453,3.85401987 C364.147684,4.67536968 365.723376,5.76165475 366.941576,7.11290766 C368.159776,8.46416057 369.126377,10.053846 369.841407,11.8820117 C370.556438,13.7101774 371.205252,15.6045526 371.787869,17.5651941 L388.312936,73.6816521 Z M479.995277,106.58847 C479.995277,107.277344 479.929071,108.072187 479.796658,108.973022 C479.664245,109.873858 479.319976,110.734937 478.763842,111.556287 C478.207707,112.377637 477.399999,113.079748 476.340695,113.662641 C475.28139,114.245535 473.851351,114.536977 472.050533,114.536977 C470.037855,114.536977 468.448922,114.258782 467.283687,113.702384 C466.118452,113.145986 465.231298,112.457122 464.622198,111.635772 C464.013098,110.814422 463.615865,109.953343 463.430486,109.052507 C463.245108,108.151672 463.15242,107.330335 463.15242,106.58847 L463.15242,101.819366 C460.61009,105.581678 457.366019,108.641823 453.42011,110.999892 C449.4742,113.35796 444.614714,114.536977 438.841505,114.536977 C437.835166,114.536977 436.272715,114.457493 434.154106,114.298522 C432.035497,114.139551 429.652098,113.715635 427.003837,113.026761 C424.355576,112.337887 421.627908,111.304591 418.820751,109.926843 C416.013594,108.549095 413.458061,106.628225 411.154074,104.164176 C408.850087,101.700126 406.956608,98.6267344 405.473582,94.9439078 C403.990556,91.2610812 403.249054,86.7702198 403.249054,81.4711888 L403.249054,36.9595507 C403.249054,32.6143452 403.778698,28.7726054 404.838003,25.4342158 C405.897307,22.0958263 407.287623,19.1946503 409.008993,16.7306009 C410.730363,14.2665515 412.703288,12.1999604 414.927827,10.5307656 C417.152366,8.86157081 419.429837,7.47059603 421.760306,6.35779952 C427.162759,3.81426462 433.333115,2.35705295 440.271559,1.98612078 C446.150699,1.98612078 451.182319,2.64848972 455.366572,3.97324748 C459.550824,5.29800523 463.099441,7.02016448 466.012528,9.13977689 C468.925615,11.2593893 471.25605,13.6571649 473.003902,16.3331755 C474.751755,19.0091862 476.102348,21.7248989 477.055722,24.480395 C478.009096,27.2358912 478.631428,29.8853669 478.922736,32.4289018 C479.214045,34.9724367 479.359697,37.1715016 479.359697,39.0261625 C479.359697,39.8210171 479.293492,40.7880758 479.161079,41.9273674 C479.028666,43.0666591 478.565227,44.1529442 477.770749,45.1862552 C476.97627,46.2195663 475.718365,47.0938933 473.996995,47.8092625 C472.275626,48.5246317 469.826021,48.8823109 466.648108,48.8823109 C465.535838,48.8823109 464.172004,48.816074 462.556565,48.6835982 C460.941125,48.5511224 459.391916,48.219938 457.90889,47.6900349 C456.425863,47.1601318 455.154717,46.3785364 454.095413,45.3452254 C453.036108,44.3119143 452.506464,42.8944448 452.506464,41.0927742 C452.506464,38.2312975 452.33433,35.6745534 451.990056,33.4224652 C451.645782,31.170377 451.02345,29.249507 450.123041,27.6597977 C449.222632,26.0700884 447.977968,24.864577 446.389011,24.0432271 C444.800055,23.2218773 442.760924,22.8112086 440.271559,22.8112086 C437.676263,22.8112086 435.676856,23.3411037 434.273277,24.4009099 C432.869699,25.4607162 431.850134,26.6264855 431.214551,27.8982529 C430.473038,29.3819816 430.049323,31.0776461 429.943392,32.9852973 L429.943392,83.8557408 C429.943392,85.5514307 430.247938,87.1411162 430.857038,88.6248449 C431.466138,90.1085736 432.32681,91.4068167 433.439079,92.5196132 C434.551349,93.6324097 435.862219,94.5067367 437.371727,95.1426205 C438.881236,95.7785042 440.536375,96.0964413 442.337192,96.0964413 C444.455801,96.0964413 446.375762,95.632783 448.097131,94.7054526 C449.818501,93.7781222 451.367711,92.5328685 452.744806,90.9696544 C454.121902,89.4064402 455.353325,87.6312915 456.439112,85.6441548 C457.524899,83.6570182 458.4915,81.5771797 459.338943,79.404577 L451.71199,79.404577 C450.175998,79.2456061 448.825405,78.8481847 447.66017,78.212301 C446.600866,77.6823979 445.660747,76.8875551 444.839786,75.8277489 C444.018826,74.7679427 443.608351,73.3107311 443.608351,71.4560702 C443.608351,69.4424384 444.018826,67.8924951 444.839786,66.8061937 C445.660747,65.7198924 446.600866,64.9118023 447.66017,64.3818991 C448.825405,63.7990057 450.175998,63.4545739 451.71199,63.3485933 L472.368323,63.3485933 C472.73908,63.3485933 473.334929,63.4148302 474.15589,63.5473059 C474.976851,63.6797817 475.824282,64.0639557 476.698208,64.6998394 C477.572134,65.3357231 478.340119,66.276287 479.002184,67.5215593 C479.664249,68.7668316 479.995277,70.5022383 479.995277,72.7278313 L479.995277,106.58847 Z M540.852013,2.62200132 C542.970622,2.62200132 545.115681,2.70148559 547.287255,2.86045652 C549.458829,3.01942745 551.418513,3.46983834 553.166365,4.21170268 C554.914218,4.95356702 556.344257,6.07959423 557.456527,7.58981807 C558.568796,9.10004191 559.124923,11.2063752 559.124923,13.908881 C559.124923,16.6113868 558.568796,18.71772 557.456527,20.2279439 C556.344257,21.7381677 554.914218,22.8641949 553.166365,23.6060593 C551.418513,24.3479236 549.458829,24.7983345 547.287255,24.9573054 C545.115681,25.1162764 542.970622,25.1957606 540.852013,25.1957606 L521.943523,25.1957606 L521.943523,46.8156991 L531.9539,46.8156991 C534.072509,46.8156991 536.204327,46.881936 538.349418,47.0144118 C540.49451,47.1468876 542.401229,47.5708037 544.069634,48.2861729 C545.738038,49.0015421 547.101872,50.0878271 548.161177,51.5450607 C549.220481,53.0022942 549.750125,55.0291432 549.750125,57.6256684 C549.750125,60.2751839 549.220481,62.3152802 548.161177,63.7460186 C547.101872,65.176757 545.738038,66.2497947 544.069634,66.9651639 C542.401229,67.680533 540.49451,68.1044492 538.349418,68.2369249 C536.204327,68.3694007 534.072509,68.4356376 531.9539,68.4356376 L521.943523,68.4356376 L521.943523,91.3273372 L540.852013,91.3273372 C542.970622,91.3273372 545.115681,91.4068215 547.287255,91.5657924 C549.458829,91.7247633 551.418513,92.1619268 553.166365,92.877296 C554.914218,93.5926652 556.344257,94.705445 557.456527,96.2156689 C558.568796,97.7258927 559.124923,99.8057312 559.124923,102.455247 C559.124923,105.210743 558.555555,107.356818 557.416803,108.893537 C556.278051,110.430256 554.83477,111.569531 553.086918,112.311395 C551.339065,113.053259 549.379382,113.50367 547.207808,113.662641 C545.036233,113.821612 542.917656,113.901097 540.852013,113.901097 L509.708618,113.901097 C506.742565,113.901097 504.451854,113.371201 502.836415,112.311395 C501.220975,111.251589 500.042517,109.860614 499.301004,108.138429 C498.559491,106.416244 498.122534,104.468879 497.990121,102.296277 C497.857708,100.123674 497.791502,97.8981142 497.791502,95.6195309 L497.791502,20.903567 C497.791502,18.6249836 497.857708,16.399424 497.990121,14.2268212 C498.122534,12.0542185 498.559491,10.1068538 499.301004,8.38466875 C500.042517,6.66248366 501.220975,5.27150889 502.836415,4.21170268 C504.451854,3.15189647 506.742565,2.62200132 509.708618,2.62200132 L540.852013,2.62200132 Z M601.867643,100.706575 C601.867643,105.210752 600.728908,108.535844 598.451404,110.681951 C596.173899,112.828059 592.969551,113.901097 588.838264,113.901097 C584.601046,113.901097 581.343734,112.828059 579.066229,110.681951 C576.788725,108.535844 575.64999,105.210752 575.64999,100.706575 C575.64999,96.1494085 576.788725,92.8375638 579.066229,90.7709417 C581.343734,88.7043196 584.601046,87.6710241 588.838264,87.6710241 C593.234377,87.6710241 596.504931,88.7043196 598.650022,90.7709417 C600.795114,92.8375638 601.867643,96.1494085 601.867643,100.706575 Z M643.815889,65.8921154 L669.080174,65.8921154 L657.321954,23.288119 L655.57411,23.288119 L643.815889,65.8921154 Z M693.708879,73.6816521 C693.81481,77.2849932 693.947221,80.9677645 694.106116,84.7300766 C694.265012,88.4923886 694.344459,92.1221704 694.344459,95.6195309 L694.344459,98.0040829 C694.344459,100.017715 694.278253,101.965079 694.14584,103.846235 C694.013427,105.727391 693.602953,107.423056 692.914405,108.93328 C692.225857,110.443504 691.140086,111.649015 689.65706,112.54985 C688.174034,113.450686 686.081939,113.901097 683.380713,113.901097 C680.626521,113.901097 678.507944,113.450686 677.024918,112.54985 C675.541891,111.649015 674.44288,110.456751 673.727849,108.973022 C673.012819,107.489294 672.589103,105.793629 672.45669,103.885978 C672.324277,101.978327 672.258072,100.017715 672.258072,98.0040829 L672.258072,86.8761734 L640.479097,86.8761734 L640.479097,98.0040829 C640.479097,100.017715 640.412892,101.978327 640.280479,103.885978 C640.148066,105.793629 639.72435,107.489294 639.00932,108.973022 C638.294289,110.456751 637.195277,111.649015 635.712251,112.54985 C634.229225,113.450686 632.110648,113.901097 629.356456,113.901097 C626.602265,113.901097 624.483688,113.450686 623.000661,112.54985 C621.517635,111.649015 620.431864,110.443504 619.743316,108.93328 C619.054769,107.423056 618.657535,105.727391 618.551605,103.846235 C618.445674,101.965079 618.39271,100.017715 618.39271,98.0040829 L618.39271,95.6195309 C618.39271,93.9768313 618.405951,92.2281772 618.432434,90.3735164 C618.458916,88.5188555 618.49864,86.6377277 618.551605,84.7300766 C618.60457,82.8224254 618.657535,80.9280502 618.7105,79.0468942 C618.763465,77.1657382 618.816429,75.377342 618.869395,73.6816521 C621.517656,64.4613381 624.298288,55.121936 627.211375,45.6631656 C630.124463,36.2043953 632.905095,26.8384984 635.553356,17.5651941 C636.083008,15.6045526 636.718582,13.7101774 637.460095,11.8820117 C638.201608,10.053846 639.18145,8.46416057 640.39965,7.11290766 C641.61785,5.76165475 643.1803,4.67536968 645.087048,3.85401987 C646.993796,3.03267006 649.43016,2.62200132 652.396213,2.62200132 L660.340956,2.62200132 C663.254043,2.62200132 665.677166,3.03267006 667.610397,3.85401987 C669.543627,4.67536968 671.119319,5.76165475 672.337519,7.11290766 C673.555719,8.46416057 674.52232,10.053846 675.23735,11.8820117 C675.952381,13.7101774 676.601195,15.6045526 677.183813,17.5651941 L693.708879,73.6816521 Z M735.657125,70.025339 L735.657125,95.778501 C735.657125,98.0570843 735.59092,100.282644 735.458507,102.455247 C735.326094,104.627849 734.875896,106.561967 734.1079,108.257657 C733.339905,109.953347 732.134964,111.317827 730.493042,112.351138 C728.85112,113.384449 726.494203,113.901097 723.42222,113.901097 C720.456168,113.901097 718.165456,113.384449 716.550017,112.351138 C714.934578,111.317827 713.756119,109.953347 713.014606,108.257657 C712.273093,106.561967 711.836136,104.627849 711.703723,102.455247 C711.57131,100.282644 711.505105,98.0570843 711.505105,95.778501 L711.505105,20.7445968 C711.505105,18.4660135 711.57131,16.2404538 711.703723,14.0678511 C711.836136,11.8952484 712.273093,9.96113108 713.014606,8.26544115 C713.756119,6.56975122 714.934578,5.2052712 716.550017,4.17196015 C718.165456,3.1386491 720.456168,2.62200132 723.42222,2.62200132 L749.639874,2.62200132 C756.207562,2.93994318 762.086613,4.31767058 767.277205,6.75522486 C769.501744,7.81503106 771.660045,9.13976895 773.752171,10.7294783 C775.844297,12.3191876 777.724534,14.2665523 779.392939,16.5716308 C781.061343,18.8767092 782.398695,21.6056693 783.405034,24.7585928 C784.411373,27.9115162 784.914536,31.5545454 784.914536,35.6877896 C784.914536,41.3577528 784.027381,46.3255199 782.253046,50.5912399 C780.478711,54.8569598 777.909937,58.4337521 774.546645,61.321724 C771.183354,64.2096959 767.07861,66.3822661 762.232293,67.8394996 C757.385975,69.2967331 751.917398,70.025339 745.826397,70.025339 L735.657125,70.025339 Z M746.461977,51.1078928 C749.110238,50.9489219 751.493637,50.3130477 753.612246,49.2002512 C754.512655,48.7233384 755.386568,48.1139589 756.234011,47.3720946 C757.081455,46.6302303 757.849439,45.7161611 758.537987,44.6298598 C759.226535,43.5435584 759.76942,42.2585626 760.166659,40.774834 C760.563898,39.2911053 760.762515,37.5954408 760.762515,35.6877896 C760.762515,33.8861191 760.563898,32.309681 760.166659,30.9584281 C759.76942,29.6071751 759.253017,28.4414058 758.617434,27.4610851 C757.981852,26.4807643 757.266832,25.6461795 756.472353,24.9573054 C755.677875,24.2684314 754.856927,23.6855467 754.009483,23.2086339 C751.996805,22.201818 749.745816,21.5924386 747.256451,21.3804774 L735.657125,21.3804774 L735.657125,51.1078928 L746.461977,51.1078928 Z M821.619251,70.025339 L821.619251,95.778501 C821.619251,98.0570843 821.553045,100.282644 821.420632,102.455247 C821.288219,104.627849 820.838022,106.561967 820.070026,108.257657 C819.30203,109.953347 818.097089,111.317827 816.455168,112.351138 C814.813246,113.384449 812.456329,113.901097 809.384346,113.901097 C806.418293,113.901097 804.127582,113.384449 802.512143,112.351138 C800.896703,111.317827 799.718245,109.953347 798.976732,108.257657 C798.235219,106.561967 797.798262,104.627849 797.665849,102.455247 C797.533436,100.282644 797.46723,98.0570843 797.46723,95.778501 L797.46723,20.7445968 C797.46723,18.4660135 797.533436,16.2404538 797.665849,14.0678511 C797.798262,11.8952484 798.235219,9.96113108 798.976732,8.26544115 C799.718245,6.56975122 800.896703,5.2052712 802.512143,4.17196015 C804.127582,3.1386491 806.418293,2.62200132 809.384346,2.62200132 L835.602,2.62200132 C842.169687,2.93994318 848.048739,4.31767058 853.23933,6.75522486 C855.46387,7.81503106 857.62217,9.13976895 859.714296,10.7294783 C861.806423,12.3191876 863.68666,14.2665523 865.355064,16.5716308 C867.023469,18.8767092 868.360821,21.6056693 869.36716,24.7585928 C870.373499,27.9115162 870.876661,31.5545454 870.876661,35.6877896 C870.876661,41.3577528 869.989507,46.3255199 868.215172,50.5912399 C866.440837,54.8569598 863.872062,58.4337521 860.508771,61.321724 C857.145479,64.2096959 853.040736,66.3822661 848.194418,67.8394996 C843.3481,69.2967331 837.879523,70.025339 831.788523,70.025339 L821.619251,70.025339 Z M832.424102,51.1078928 C835.072363,50.9489219 837.455762,50.3130477 839.574371,49.2002512 C840.47478,48.7233384 841.348693,48.1139589 842.196137,47.3720946 C843.04358,46.6302303 843.811565,45.7161611 844.500112,44.6298598 C845.18866,43.5435584 845.731546,42.2585626 846.128785,40.774834 C846.526024,39.2911053 846.724641,37.5954408 846.724641,35.6877896 C846.724641,33.8861191 846.526024,32.309681 846.128785,30.9584281 C845.731546,29.6071751 845.215142,28.4414058 844.57956,27.4610851 C843.943977,26.4807643 843.228957,25.6461795 842.434479,24.9573054 C841.640001,24.2684314 840.819052,23.6855467 839.971609,23.2086339 C837.95893,22.201818 835.707942,21.5924386 833.218577,21.3804774 L821.619251,21.3804774 L821.619251,51.1078928 L832.424102,51.1078928 Z" id="path-7"></path>
    </defs>
    <g id="anlage.app-logo-type-white" stroke="none" stroke-width="1" fill="none" fill-rule="evenodd">
        <g id="Anlage-App-Logo-Type-Margin-Copy" transform="translate(-69.000000, 47.000000)">
            <g id="anlage.app-logo-with-type" transform="translate(109.000000, 16.000000)">
                <g id="Group">
                    <g id="logo/finalyzer-logo" transform="translate(1.414475, 1.915488)">
                        <g id="Group">
                            <g id="Path-+-Rectangle-Mask">
                                <g id="Combined-Shape" transform="translate(54.630197, 55.004376)">
                                    <mask id="mask-2" fill="white">
                                        <use xlink:href="#path-1"></use>
                                    </mask>
                                    <use fill="#E29B4A" fill-rule="nonzero" xlink:href="#path-1"></use>
                                    <g id="color/white" mask="url(#mask-2)" fill="#FFFFFF">
                                        <rect id="color" x="0" y="0" width="171" height="171"></rect>
                                    </g>
                                </g>
                                <g id="Group-3" transform="translate(14.218818, 13.844639)">
                                    <mask id="mask-4" fill="white">
                                        <use xlink:href="#path-3"></use>
                                    </mask>
                                    <use id="Mask" fill="#E29B4A" fill-rule="nonzero" xlink:href="#path-3"></use>
                                    <g id="color/white" mask="url(#mask-4)" fill="#FFFFFF">
                                        <g transform="translate(-14.218818, -13.844639)" id="color">
                                            <rect x="0" y="0" width="171" height="171"></rect>
                                        </g>
                                    </g>
                                </g>
                                <g id="Group-2">
                                    <mask id="mask-6" fill="white">
                                        <use xlink:href="#path-5"></use>
                                    </mask>
                                    <use id="Path" fill="#E29B4A" fill-rule="nonzero" xlink:href="#path-5"></use>
                                    <g id="color/white" mask="url(#mask-6)" fill="#FFFFFF">
                                        <rect id="color" x="0" y="0" width="171" height="171"></rect>
                                    </g>
                                </g>
                            </g>
                        </g>
                    </g>
                    <g id="Anlage.App-Logo-Text" transform="translate(242.774487, 28.867425)">
                        <g id="color/white">
                            <g>
                                <mask id="mask-8" fill="white">
                                    <use xlink:href="#path-7"></use>
                                </mask>
                                <use id="Mask" fill="#FFFFFF" xlink:href="#path-7"></use>
                                <g mask="url(#mask-8)" fill="#FFFFFF" id="color">
                                    <g transform="translate(-145.471290, -522.923234)">
                                        <rect x="0" y="0" width="1162" height="1162"></rect>
                                    </g>
                                </g>
                            </g>
                        </g>
                    </g>
                </g>
            </g>
        </g>
    </g>
</svg>